<?xml version="1.0" encoding="UTF-8"?>
<svg id="Camada_2" data-name="Camada 2" xmlns="http://www.w3.org/2000/svg" xmlns:xlink="http://www.w3.org/1999/xlink" viewBox="0 0 891.37 139.48">
  <defs>
    <linearGradient id="Nova_amostra_de_gradiente_1" data-name="Nova amostra de gradiente 1" x1="680" y1="-411.26" x2="1571.37" y2="-411.26" gradientTransform="translate(-680 481)" gradientUnits="userSpaceOnUse">
      <stop offset="0" stop-color="#dde3e3"/>
      <stop offset="1" stop-color="#fff"/>
    </linearGradient>
  </defs>
  <g id="Camada_1-2" data-name="Camada 1">
    <g>
      <g>
        <g>
          <path d="M20.62,86.01H0V0h20.62c29.22.94,45.48,21.92,45.36,43-.12,21.09-16.38,42.06-45.36,43ZM20.73,85.42c26.04-1.41,39-22.03,39-42.42S46.77,2,20.73.59H6.12v84.83h14.61Z"/>
          <path d="M139.73,86.25c-14.49-3.65-19.32-13.67-22.03-22.5-4.01-12.96-7.07-23.92-17.43-30.99h-15.55v53.26h-6.13V0h29.81c12.37.12,18.85,8.25,18.85,16.26s-6.6,16.5-20.5,16.5h-5.42c13.9,10.6,18.61,18.85,21.68,27.57,3.89,11.19,6.83,23.09,16.73,25.21v.71ZM106.74,32.17c9.42,0,14.49-8.48,14.49-16.73,0-7.54-4.36-14.85-13.2-14.85h-23.33v31.58h22.03Z"/>
          <path d="M230.09,86.01h-20.62V0h20.62c29.22.94,45.48,21.92,45.36,43-.12,21.09-16.38,42.06-45.36,43ZM230.2,85.42c26.04-1.41,39-22.03,39-42.42S256.24,2,230.2.59h-14.61v84.83h14.61Z"/>
          <path d="M323.28,86.01l-14.26-53.26h-16.96l-14.26,53.26h-.59L300.3,0h6.24l23.09,86.01h-6.36ZM300.54,1.18l-8.25,30.99h16.61l-8.36-30.99Z"/>
          <path d="M354.97,86.01h-6.25L325.63,0h.59l22.74,84.83L371.7,0h6.36l-23.09,86.01Z"/>
          <path d="M396.67,86.01h-6.12V0h6.12v86.01Z"/>
          <path d="M429.78,86.01h-20.62V0h20.62c29.22.94,45.48,21.92,45.36,43-.12,21.09-16.38,42.06-45.36,43ZM429.9,85.42c26.04-1.41,39-22.03,39-42.42S455.93,2,429.9.59h-14.61v84.83h14.61Z"/>
          <path d="M555.72,86.01h-29.34V0h27.33c12.14.12,16.85,6.83,16.85,12.14,0,5.66-3.77,11.31-11.66,12.14,18.38,1.65,27.81,17.08,27.81,30.28,0,14.73-9.66,31.46-30.99,31.46ZM554.89,24.15c6.6,0,10.6-5.66,10.6-11.43-.12-5.3-2-12.14-12.25-12.14h-20.74v23.56h22.39ZM555.25,85.42c18.14,0,25.1-15.43,25.1-28.87v-2.95c0-13.43-6.95-28.87-25.1-28.87h-22.74v60.68h22.74Z"/>
          <path d="M660.34,86.25c-14.49-3.65-19.32-13.67-22.03-22.5-4.01-12.96-7.07-23.92-17.44-30.99h-15.55v53.26h-6.12V0h29.81c12.37.12,18.85,8.25,18.85,16.26s-6.6,16.5-20.5,16.5h-5.42c13.9,10.6,18.62,18.85,21.68,27.57,3.89,11.19,6.83,23.09,16.73,25.21v.71ZM627.35,32.17c9.43,0,14.49-8.48,14.49-16.73,0-7.54-4.36-14.85-13.2-14.85h-23.33v31.58h22.03Z"/>
          <path d="M724.31,86.01h-51.49V0h51.49v.59h-45.36v31.58h29.69v.59h-29.69v52.67h45.36v.59Z"/>
          <path d="M789.93,86.01l-52.55-74.58v74.58h-.59V0l52.55,73.99V0h.59v86.01Z"/>
          <path d="M847.19,86.01h-.59c-31.46,0-44.18-21.56-44.18-43.12.12-22.5,12.84-42.42,44.42-42.89,31.69.47,44.42,20.38,44.53,42.89,0,21.56-12.72,43.12-44.18,43.12ZM846.83,85.42c27.69,0,38.41-21.56,38.41-42.42S874.52.59,846.83.59s-38.29,21.56-38.29,42.42,10.72,42.42,38.29,42.42Z"/>
        </g>
        <g>
          <path d="M170.94,120.23l-1.81,1.39c-1-1.3-2.19-2.28-3.59-2.95-1.4-.67-2.93-1.01-4.61-1.01-1.83,0-3.52.44-5.08,1.32-1.56.88-2.77,2.06-3.62,3.54-.86,1.48-1.29,3.15-1.29,5,0,2.8.96,5.13,2.88,7,1.92,1.87,4.34,2.81,7.25,2.81,3.21,0,5.9-1.26,8.06-3.77l1.81,1.37c-1.14,1.45-2.57,2.58-4.28,3.37-1.71.79-3.62,1.19-5.73,1.19-4.01,0-7.18-1.33-9.49-4.01-1.94-2.25-2.92-4.98-2.92-8.17,0-3.36,1.18-6.18,3.53-8.47,2.35-2.29,5.3-3.44,8.85-3.44,2.14,0,4.07.42,5.8,1.27,1.73.85,3.14,2.03,4.24,3.56Z" style="fill: #433023;"/>
          <path d="M191.17,115.97h2.29v22.93h-2.29v-22.93Z" style="fill: #433023;"/>
          <path d="M214.8,115.97h4.57c2.54,0,4.27.1,5.17.31,1.36.31,2.47.98,3.32,2s1.28,2.29,1.28,3.78c0,1.25-.29,2.35-.88,3.29-.59.95-1.43,1.66-2.52,2.15-1.09.48-2.6.73-4.52.74l8.24,10.65h-2.83l-8.24-10.65h-1.29v10.65h-2.29v-22.93ZM217.09,118.22v7.79l3.95.03c1.53,0,2.66-.15,3.4-.44.73-.29,1.31-.76,1.72-1.4.41-.64.62-1.35.62-2.14s-.21-1.47-.62-2.1c-.41-.63-.96-1.08-1.64-1.35-.68-.27-1.8-.41-3.37-.41h-4.04Z" style="fill: #433023;"/>
          <path d="M250.08,115.97h2.29v13.84c0,1.64.03,2.67.09,3.07.11.9.38,1.66.8,2.27s1.05,1.12,1.92,1.53c.86.41,1.73.62,2.6.62.76,0,1.49-.16,2.18-.48.7-.32,1.28-.77,1.75-1.34.47-.57.81-1.26,1.03-2.07.16-.58.23-1.78.23-3.58v-13.84h2.29v13.84c0,2.05-.2,3.7-.6,4.96-.4,1.26-1.2,2.36-2.4,3.3-1.2.94-2.65,1.4-4.36,1.4-1.85,0-3.43-.44-4.75-1.32-1.32-.88-2.2-2.05-2.65-3.51-.28-.89-.42-2.5-.42-4.83v-13.84Z" style="fill: #433023;"/>
          <path d="M286.99,115.97h4.57c2.54,0,4.27.1,5.17.31,1.36.31,2.47.98,3.32,2s1.28,2.29,1.28,3.78c0,1.25-.29,2.35-.88,3.29-.59.95-1.43,1.66-2.52,2.15-1.09.48-2.6.73-4.52.74l8.24,10.65h-2.83l-8.24-10.65h-1.29v10.65h-2.29v-22.93ZM289.28,118.22v7.79l3.95.03c1.53,0,2.66-.15,3.4-.44.73-.29,1.31-.76,1.72-1.4.41-.64.62-1.35.62-2.14s-.21-1.47-.62-2.1c-.41-.63-.96-1.08-1.64-1.35-.68-.27-1.8-.41-3.37-.41h-4.04Z" style="fill: #433023;"/>
          <path d="M344.32,119.82l-1.77,1.68c-1.28-1.26-2.68-2.21-4.2-2.86-1.52-.65-3.01-.97-4.45-.97-1.8,0-3.51.44-5.13,1.32-1.63.88-2.89,2.08-3.78,3.59-.89,1.51-1.34,3.11-1.34,4.79s.46,3.36,1.39,4.92c.92,1.55,2.2,2.77,3.83,3.66,1.63.89,3.42,1.33,5.36,1.33,2.36,0,4.36-.67,5.99-2s2.6-3.05,2.9-5.17h-7.31v-2.21h9.88c-.02,3.54-1.07,6.36-3.16,8.44-2.08,2.08-4.87,3.12-8.36,3.12-4.24,0-7.6-1.44-10.07-4.33-1.9-2.22-2.85-4.8-2.85-7.72,0-2.17.55-4.19,1.64-6.06,1.09-1.87,2.59-3.33,4.49-4.39,1.9-1.05,4.05-1.58,6.45-1.58,1.95,0,3.77.35,5.49,1.05s3.39,1.83,5.02,3.37Z" style="fill: #433023;"/>
          <path d="M365.67,115.97h2.29v22.93h-2.29v-22.93Z" style="fill: #433023;"/>
          <path d="M398.54,115.97l10.69,22.93h-2.48l-3.61-7.54h-9.87l-3.57,7.54h-2.56l10.83-22.93h.56ZM402.83,111l1.09,1.51c-.75.55-1.38.91-1.89,1.1-.52.19-1.06.28-1.63.28-.75,0-1.52-.19-2.31-.58-.68-.33-1.11-.52-1.29-.58-.25-.07-.52-.11-.81-.11-.36,0-.71.07-1.04.19-.33.13-.8.42-1.43.88l-1.03-1.59c.95-1.02,2.11-1.53,3.51-1.53.67,0,1.46.21,2.39.64.88.42,1.58.62,2.09.62.57,0,1.36-.29,2.35-.86ZM398.25,120.85l-3.93,8.3h7.84l-3.91-8.3Z" style="fill: #433023;"/>
          <path d="M439.66,115.4c3.47,0,6.38,1.16,8.72,3.48,2.34,2.32,3.51,5.17,3.51,8.56s-1.17,6.2-3.5,8.54c-2.34,2.34-5.18,3.51-8.54,3.51s-6.27-1.16-8.61-3.49c-2.34-2.33-3.51-5.14-3.51-8.45,0-2.2.53-4.24,1.6-6.12,1.07-1.88,2.52-3.35,4.36-4.42s3.83-1.6,5.97-1.6ZM439.77,117.63c-1.7,0-3.3.44-4.82,1.33-1.52.88-2.71,2.07-3.56,3.57-.85,1.5-1.28,3.17-1.28,5.01,0,2.72.94,5.03,2.83,6.9s4.17,2.82,6.83,2.82c1.78,0,3.43-.43,4.94-1.29,1.51-.86,2.7-2.04,3.54-3.54.85-1.5,1.27-3.16,1.27-4.99s-.42-3.47-1.27-4.94c-.85-1.47-2.04-2.65-3.58-3.53-1.54-.88-3.17-1.33-4.9-1.33Z" style="fill: #433023;"/>
          <path d="M497.25,138.9v-22.93h4.75c3.43,0,5.92.28,7.47.83,2.22.78,3.96,2.13,5.21,4.05,1.25,1.92,1.88,4.21,1.88,6.87,0,2.3-.5,4.32-1.49,6.06-.99,1.75-2.28,3.03-3.86,3.87-1.59.83-3.81,1.25-6.67,1.25h-7.29ZM499.45,136.74h2.65c3.17,0,5.37-.2,6.59-.59,1.73-.56,3.08-1.57,4.07-3.03s1.48-3.24,1.48-5.35c0-2.21-.53-4.1-1.6-5.67-1.07-1.57-2.56-2.64-4.47-3.22-1.44-.44-3.8-.65-7.09-.65h-1.62v18.52Z" style="fill: #433023;"/>
          <path d="M536.98,115.97h13.14v2.24h-10.85v7.18h10.75v2.25h-10.75v9.01h10.75v2.24h-13.05v-22.93Z" style="fill: #433023;"/>
          <path d="M570.05,138.9v-22.93h.5l15.26,17.57v-17.57h2.26v22.93h-.51l-15.14-17.36v17.36h-2.37Z" style="fill: #433023;"/>
          <path d="M607.34,118.22v-2.24h12.56v2.24h-5.11v20.68h-2.34v-20.68h-5.11Z" style="fill: #433023;"/>
          <path d="M638.83,115.97h2.29v22.93h-2.29v-22.93Z" style="fill: #433023;"/>
          <path d="M659.97,134.63l1.95-1.17c1.37,2.53,2.96,3.79,4.76,3.79.77,0,1.49-.18,2.16-.54.68-.36,1.19-.84,1.54-1.44s.53-1.24.53-1.92c0-.77-.26-1.52-.78-2.26-.72-1.02-2.03-2.24-3.93-3.68-1.91-1.44-3.1-2.49-3.57-3.13-.81-1.08-1.22-2.25-1.22-3.51,0-1,.24-1.91.72-2.73.48-.82,1.15-1.47,2.02-1.94s1.81-.71,2.83-.71c1.08,0,2.09.27,3.03.8s1.94,1.52,2.98,2.95l-1.87,1.42c-.86-1.14-1.6-1.9-2.2-2.26-.61-.36-1.27-.54-1.99-.54-.92,0-1.68.28-2.27.84-.59.56-.88,1.25-.88,2.07,0,.5.11.98.31,1.45s.59.98,1.14,1.53c.3.29,1.29,1.05,2.96,2.29,1.98,1.47,3.35,2.77,4.09,3.91.74,1.14,1.1,2.29,1.1,3.44,0,1.66-.63,3.11-1.89,4.33-1.26,1.23-2.8,1.84-4.61,1.84-1.39,0-2.65-.37-3.79-1.11-1.13-.74-2.18-1.99-3.13-3.73Z" style="fill: #433023;"/>
          <path d="M691.92,118.22v-2.24h12.56v2.24h-5.11v20.68h-2.34v-20.68h-5.11Z" style="fill: #433023;"/>
          <path d="M733.12,115.97l10.69,22.93h-2.48l-3.61-7.54h-9.87l-3.57,7.54h-2.56l10.83-22.93h.56ZM732.83,120.85l-3.93,8.3h7.84l-3.91-8.3Z" style="fill: #433023;"/>
        </g>
      </g>
      <g>
        <g>
          <path d="M20.62,86.01H0V0h20.62c29.22.94,45.48,21.92,45.36,43-.12,21.09-16.38,42.06-45.36,43ZM20.73,85.42c26.04-1.41,39-22.03,39-42.42S46.77,2,20.73.59H6.12v84.83h14.61Z" style="fill: url(#Nova_amostra_de_gradiente_1);"/>
          <path d="M139.73,86.25c-14.49-3.65-19.32-13.67-22.03-22.5-4.01-12.96-7.07-23.92-17.43-30.99h-15.55v53.26h-6.13V0h29.81c12.37.12,18.85,8.25,18.85,16.26s-6.6,16.5-20.5,16.5h-5.42c13.9,10.6,18.61,18.85,21.68,27.57,3.89,11.19,6.83,23.09,16.73,25.21v.71ZM106.74,32.17c9.42,0,14.49-8.48,14.49-16.73,0-7.54-4.36-14.85-13.2-14.85h-23.33v31.58h22.03Z" style="fill: url(#Nova_amostra_de_gradiente_1);"/>
          <path d="M230.09,86.01h-20.62V0h20.62c29.22.94,45.48,21.92,45.36,43-.12,21.09-16.38,42.06-45.36,43ZM230.2,85.42c26.04-1.41,39-22.03,39-42.42S256.24,2,230.2.59h-14.61v84.83h14.61Z" style="fill: url(#Nova_amostra_de_gradiente_1);"/>
          <path d="M323.28,86.01l-14.26-53.26h-16.96l-14.26,53.26h-.59L300.3,0h6.24l23.09,86.01h-6.36ZM300.54,1.18l-8.25,30.99h16.61l-8.36-30.99Z" style="fill: url(#Nova_amostra_de_gradiente_1);"/>
          <path d="M354.97,86.01h-6.25L325.63,0h.59l22.74,84.83L371.7,0h6.36l-23.09,86.01Z" style="fill: url(#Nova_amostra_de_gradiente_1);"/>
          <path d="M396.67,86.01h-6.12V0h6.12v86.01Z" style="fill: url(#Nova_amostra_de_gradiente_1);"/>
          <path d="M429.78,86.01h-20.62V0h20.62c29.22.94,45.48,21.92,45.36,43-.12,21.09-16.38,42.06-45.36,43ZM429.9,85.42c26.04-1.41,39-22.03,39-42.42S455.93,2,429.9.59h-14.61v84.83h14.61Z" style="fill: url(#Nova_amostra_de_gradiente_1);"/>
          <path d="M555.72,86.01h-29.34V0h27.33c12.14.12,16.85,6.83,16.85,12.14,0,5.66-3.77,11.31-11.66,12.14,18.38,1.65,27.81,17.08,27.81,30.28,0,14.73-9.66,31.46-30.99,31.46ZM554.89,24.15c6.6,0,10.6-5.66,10.6-11.43-.12-5.3-2-12.14-12.25-12.14h-20.74v23.56h22.39ZM555.25,85.42c18.14,0,25.1-15.43,25.1-28.87v-2.95c0-13.43-6.95-28.87-25.1-28.87h-22.74v60.68h22.74Z" style="fill: url(#Nova_amostra_de_gradiente_1);"/>
          <path d="M660.34,86.25c-14.49-3.65-19.32-13.67-22.03-22.5-4.01-12.96-7.07-23.92-17.44-30.99h-15.55v53.26h-6.12V0h29.81c12.37.12,18.85,8.25,18.85,16.26s-6.6,16.5-20.5,16.5h-5.42c13.9,10.6,18.62,18.85,21.68,27.57,3.89,11.19,6.83,23.09,16.73,25.21v.71ZM627.35,32.17c9.43,0,14.49-8.48,14.49-16.73,0-7.54-4.36-14.85-13.2-14.85h-23.33v31.58h22.03Z" style="fill: url(#Nova_amostra_de_gradiente_1);"/>
          <path d="M724.31,86.01h-51.49V0h51.49v.59h-45.36v31.58h29.69v.59h-29.69v52.67h45.36v.59Z" style="fill: url(#Nova_amostra_de_gradiente_1);"/>
          <path d="M789.93,86.01l-52.55-74.58v74.58h-.59V0l52.55,73.99V0h.59v86.01Z" style="fill: url(#Nova_amostra_de_gradiente_1);"/>
          <path d="M847.19,86.01h-.59c-31.46,0-44.18-21.56-44.18-43.12.12-22.5,12.84-42.42,44.42-42.89,31.69.47,44.42,20.38,44.53,42.89,0,21.56-12.72,43.12-44.18,43.12ZM846.83,85.42c27.69,0,38.41-21.56,38.41-42.42S874.52.59,846.83.59s-38.29,21.56-38.29,42.42,10.72,42.42,38.29,42.42Z" style="fill: url(#Nova_amostra_de_gradiente_1);"/>
        </g>
        <g>
          <path d="M170.94,120.23l-1.81,1.39c-1-1.3-2.19-2.28-3.59-2.95-1.4-.67-2.93-1.01-4.61-1.01-1.83,0-3.52.44-5.08,1.32-1.56.88-2.77,2.06-3.62,3.54-.86,1.48-1.29,3.15-1.29,5,0,2.8.96,5.13,2.88,7,1.92,1.87,4.34,2.81,7.25,2.81,3.21,0,5.9-1.26,8.06-3.77l1.81,1.37c-1.14,1.45-2.57,2.58-4.28,3.37-1.71.79-3.62,1.19-5.73,1.19-4.01,0-7.18-1.33-9.49-4.01-1.94-2.25-2.92-4.98-2.92-8.17,0-3.36,1.18-6.18,3.53-8.47,2.35-2.29,5.3-3.44,8.85-3.44,2.14,0,4.07.42,5.8,1.27,1.73.85,3.14,2.03,4.24,3.56Z" style="fill: url(#Nova_amostra_de_gradiente_1);"/>
          <path d="M191.17,115.97h2.29v22.93h-2.29v-22.93Z" style="fill: url(#Nova_amostra_de_gradiente_1);"/>
          <path d="M214.8,115.97h4.57c2.54,0,4.27.1,5.17.31,1.36.31,2.47.98,3.32,2s1.28,2.29,1.28,3.78c0,1.25-.29,2.35-.88,3.29-.59.95-1.43,1.66-2.52,2.15-1.09.48-2.6.73-4.52.74l8.24,10.65h-2.83l-8.24-10.65h-1.29v10.65h-2.29v-22.93ZM217.09,118.22v7.79l3.95.03c1.53,0,2.66-.15,3.4-.44.73-.29,1.31-.76,1.72-1.4.41-.64.62-1.35.62-2.14s-.21-1.47-.62-2.1c-.41-.63-.96-1.08-1.64-1.35-.68-.27-1.8-.41-3.37-.41h-4.04Z" style="fill: url(#Nova_amostra_de_gradiente_1);"/>
          <path d="M250.08,115.97h2.29v13.84c0,1.64.03,2.67.09,3.07.11.9.38,1.66.8,2.27s1.05,1.12,1.92,1.53c.86.41,1.73.62,2.6.62.76,0,1.49-.16,2.18-.48.7-.32,1.28-.77,1.75-1.34.47-.57.81-1.26,1.03-2.07.16-.58.23-1.78.23-3.58v-13.84h2.29v13.84c0,2.05-.2,3.7-.6,4.96-.4,1.26-1.2,2.36-2.4,3.3-1.2.94-2.65,1.4-4.36,1.4-1.85,0-3.43-.44-4.75-1.32-1.32-.88-2.2-2.05-2.65-3.51-.28-.89-.42-2.5-.42-4.83v-13.84Z" style="fill: url(#Nova_amostra_de_gradiente_1);"/>
          <path d="M286.99,115.97h4.57c2.54,0,4.27.1,5.17.31,1.36.31,2.47.98,3.32,2s1.28,2.29,1.28,3.78c0,1.25-.29,2.35-.88,3.29-.59.95-1.43,1.66-2.52,2.15-1.09.48-2.6.73-4.52.74l8.24,10.65h-2.83l-8.24-10.65h-1.29v10.65h-2.29v-22.93ZM289.28,118.22v7.79l3.95.03c1.53,0,2.66-.15,3.4-.44.73-.29,1.31-.76,1.72-1.4.41-.64.62-1.35.62-2.14s-.21-1.47-.62-2.1c-.41-.63-.96-1.08-1.64-1.35-.68-.27-1.8-.41-3.37-.41h-4.04Z" style="fill: url(#Nova_amostra_de_gradiente_1);"/>
          <path d="M344.32,119.82l-1.77,1.68c-1.28-1.26-2.68-2.21-4.2-2.86-1.52-.65-3.01-.97-4.45-.97-1.8,0-3.51.44-5.13,1.32-1.63.88-2.89,2.08-3.78,3.59-.89,1.51-1.34,3.11-1.34,4.79s.46,3.36,1.39,4.92c.92,1.55,2.2,2.77,3.83,3.66,1.63.89,3.42,1.33,5.36,1.33,2.36,0,4.36-.67,5.99-2s2.6-3.05,2.9-5.17h-7.31v-2.21h9.88c-.02,3.54-1.07,6.36-3.16,8.44-2.08,2.08-4.87,3.12-8.36,3.12-4.24,0-7.6-1.44-10.07-4.33-1.9-2.22-2.85-4.8-2.85-7.72,0-2.17.55-4.19,1.64-6.06,1.09-1.87,2.59-3.33,4.49-4.39,1.9-1.05,4.05-1.58,6.45-1.58,1.95,0,3.77.35,5.49,1.05s3.39,1.83,5.02,3.37Z" style="fill: url(#Nova_amostra_de_gradiente_1);"/>
          <path d="M365.67,115.97h2.29v22.93h-2.29v-22.93Z" style="fill: url(#Nova_amostra_de_gradiente_1);"/>
          <path d="M398.54,115.97l10.69,22.93h-2.48l-3.61-7.54h-9.87l-3.57,7.54h-2.56l10.83-22.93h.56ZM402.83,111l1.09,1.51c-.75.55-1.38.91-1.89,1.1-.52.19-1.06.28-1.63.28-.75,0-1.52-.19-2.31-.58-.68-.33-1.11-.52-1.29-.58-.25-.07-.52-.11-.81-.11-.36,0-.71.07-1.04.19-.33.13-.8.42-1.43.88l-1.03-1.59c.95-1.02,2.11-1.53,3.51-1.53.67,0,1.46.21,2.39.64.88.42,1.58.62,2.09.62.57,0,1.36-.29,2.35-.86ZM398.25,120.85l-3.93,8.3h7.84l-3.91-8.3Z" style="fill: url(#Nova_amostra_de_gradiente_1);"/>
          <path d="M439.66,115.4c3.47,0,6.38,1.16,8.72,3.48,2.34,2.32,3.51,5.17,3.51,8.56s-1.17,6.2-3.5,8.54c-2.34,2.34-5.18,3.51-8.54,3.51s-6.27-1.16-8.61-3.49c-2.34-2.33-3.51-5.14-3.51-8.45,0-2.2.53-4.24,1.6-6.12,1.07-1.88,2.52-3.35,4.36-4.42s3.83-1.6,5.97-1.6ZM439.77,117.63c-1.7,0-3.3.44-4.82,1.33-1.52.88-2.71,2.07-3.56,3.57-.85,1.5-1.28,3.17-1.28,5.01,0,2.72.94,5.03,2.83,6.9s4.17,2.82,6.83,2.82c1.78,0,3.43-.43,4.94-1.29,1.51-.86,2.7-2.04,3.54-3.54.85-1.5,1.27-3.16,1.27-4.99s-.42-3.47-1.27-4.94c-.85-1.47-2.04-2.65-3.58-3.53-1.54-.88-3.17-1.33-4.9-1.33Z" style="fill: url(#Nova_amostra_de_gradiente_1);"/>
          <path d="M497.25,138.9v-22.93h4.75c3.43,0,5.92.28,7.47.83,2.22.78,3.96,2.13,5.21,4.05,1.25,1.92,1.88,4.21,1.88,6.87,0,2.3-.5,4.32-1.49,6.06-.99,1.75-2.28,3.03-3.86,3.87-1.59.83-3.81,1.25-6.67,1.25h-7.29ZM499.45,136.74h2.65c3.17,0,5.37-.2,6.59-.59,1.73-.56,3.08-1.57,4.07-3.03s1.48-3.24,1.48-5.35c0-2.21-.53-4.1-1.6-5.67-1.07-1.57-2.56-2.64-4.47-3.22-1.44-.44-3.8-.65-7.09-.65h-1.62v18.52Z" style="fill: url(#Nova_amostra_de_gradiente_1);"/>
          <path d="M536.98,115.97h13.14v2.24h-10.85v7.18h10.75v2.25h-10.75v9.01h10.75v2.24h-13.05v-22.93Z" style="fill: url(#Nova_amostra_de_gradiente_1);"/>
          <path d="M570.05,138.9v-22.93h.5l15.26,17.57v-17.57h2.26v22.93h-.51l-15.14-17.36v17.36h-2.37Z" style="fill: url(#Nova_amostra_de_gradiente_1);"/>
          <path d="M607.34,118.22v-2.24h12.56v2.24h-5.11v20.68h-2.34v-20.68h-5.11Z" style="fill: url(#Nova_amostra_de_gradiente_1);"/>
          <path d="M638.83,115.97h2.29v22.93h-2.29v-22.93Z" style="fill: url(#Nova_amostra_de_gradiente_1);"/>
          <path d="M659.97,134.63l1.95-1.17c1.37,2.53,2.96,3.79,4.76,3.79.77,0,1.49-.18,2.16-.54.68-.36,1.19-.84,1.54-1.44s.53-1.24.53-1.92c0-.77-.26-1.52-.78-2.26-.72-1.02-2.03-2.24-3.93-3.68-1.91-1.44-3.1-2.49-3.57-3.13-.81-1.08-1.22-2.25-1.22-3.51,0-1,.24-1.91.72-2.73.48-.82,1.15-1.47,2.02-1.94s1.81-.71,2.83-.71c1.08,0,2.09.27,3.03.8s1.94,1.52,2.98,2.95l-1.87,1.42c-.86-1.14-1.6-1.9-2.2-2.26-.61-.36-1.27-.54-1.99-.54-.92,0-1.68.28-2.27.84-.59.56-.88,1.25-.88,2.07,0,.5.11.98.31,1.45s.59.98,1.14,1.53c.3.29,1.29,1.05,2.96,2.29,1.98,1.47,3.35,2.77,4.09,3.91.74,1.14,1.1,2.29,1.1,3.44,0,1.66-.63,3.11-1.89,4.33-1.26,1.23-2.8,1.84-4.61,1.84-1.39,0-2.65-.37-3.79-1.11-1.13-.74-2.18-1.99-3.13-3.73Z" style="fill: url(#Nova_amostra_de_gradiente_1);"/>
          <path d="M691.92,118.22v-2.24h12.56v2.24h-5.11v20.68h-2.34v-20.68h-5.11Z" style="fill: url(#Nova_amostra_de_gradiente_1);"/>
          <path d="M733.12,115.97l10.69,22.93h-2.48l-3.61-7.54h-9.87l-3.57,7.54h-2.56l10.83-22.93h.56ZM732.83,120.85l-3.93,8.3h7.84l-3.91-8.3Z" style="fill: url(#Nova_amostra_de_gradiente_1);"/>
        </g>
      </g>
    </g>
  </g>
</svg>