<?xml version="1.0" encoding="UTF-8"?>
<svg id="Camada_2" data-name="Camada 2" xmlns="http://www.w3.org/2000/svg" xmlns:xlink="http://www.w3.org/1999/xlink" viewBox="0 0 163.1 171.08">
  <defs>
    <linearGradient id="Nova_amostra_de_gradiente_1" data-name="Nova amostra de gradiente 1" x1="86.91" y1="67.63" x2="105.19" y2="67.63" gradientUnits="userSpaceOnUse">
      <stop offset="0" stop-color="#dde3e3"/>
      <stop offset="1" stop-color="#fff"/>
    </linearGradient>
    <linearGradient id="Nova_amostra_de_gradiente_1-2" data-name="Nova amostra de gradiente 1" x1="0" y1="163.21" x2="26.08" y2="163.21" xlink:href="#Nova_amostra_de_gradiente_1"/>
    <linearGradient id="Nova_amostra_de_gradiente_1-3" data-name="Nova amostra de gradiente 1" x1="50.38" y1="123.21" x2="78.62" y2="123.21" xlink:href="#Nova_amostra_de_gradiente_1"/>
    <linearGradient id="Nova_amostra_de_gradiente_1-4" data-name="Nova amostra de gradiente 1" x1=".56" y1="85.52" x2="113.56" y2="85.52" xlink:href="#Nova_amostra_de_gradiente_1"/>
    <linearGradient id="Nova_amostra_de_gradiente_1-5" data-name="Nova amostra de gradiente 1" x1="71.37" y1="86.02" x2="163.1" y2="86.02" xlink:href="#Nova_amostra_de_gradiente_1"/>
    <linearGradient id="linear-gradient" x1="-394.44" y1="-1300.46" x2="-229.9" y2="-1300.46" gradientTransform="translate(394 1386)" gradientUnits="userSpaceOnUse">
      <stop offset="0" stop-color="#fff"/>
      <stop offset=".33" stop-color="#959595"/>
      <stop offset=".34" stop-color="#969696"/>
      <stop offset=".51" stop-color="#cecece"/>
      <stop offset=".64" stop-color="#f1f1f1"/>
      <stop offset=".71" stop-color="#fff"/>
      <stop offset="1" stop-color="#9a9a9a"/>
    </linearGradient>
    <linearGradient id="linear-gradient-2" x1="-233.56" y1="-1380.98" x2="-385.54" y2="-1262.57" gradientTransform="translate(394 1386)" gradientUnits="userSpaceOnUse">
      <stop offset="0" stop-color="#959595"/>
      <stop offset=".06" stop-color="#b9b9b9"/>
      <stop offset=".12" stop-color="#dbdbdb"/>
      <stop offset=".17" stop-color="#efefef"/>
      <stop offset=".21" stop-color="#f7f7f7"/>
      <stop offset=".25" stop-color="#f2f2f2"/>
      <stop offset=".28" stop-color="#e6e6e6"/>
      <stop offset=".32" stop-color="#d2d2d2"/>
      <stop offset=".36" stop-color="#b6b6b6"/>
      <stop offset=".4" stop-color="#929292"/>
      <stop offset=".44" stop-color="#666"/>
      <stop offset=".46" stop-color="#3e3e3e"/>
      <stop offset=".47" stop-color="#3e3e3e"/>
      <stop offset=".51" stop-color="#717171"/>
      <stop offset=".56" stop-color="#9c9c9c"/>
      <stop offset=".61" stop-color="silver"/>
      <stop offset=".65" stop-color="#dbdbdb"/>
      <stop offset=".7" stop-color="#efefef"/>
      <stop offset=".75" stop-color="#fbfbfb"/>
      <stop offset=".8" stop-color="#fff"/>
      <stop offset="1" stop-color="#9a9a9a"/>
    </linearGradient>
  </defs>
  <g id="Camada_1-2" data-name="Camada 1">
    <g>
      <g>
        <path d="M90.39,77.78c5.87-6.33,11.25-13.82,14.8-20.3-4.31,6.97-10.32,14.68-18.28,18.33,1.19.63,2.36,1.28,3.48,1.97Z" style="fill: url(#Nova_amostra_de_gradiente_1);"/>
        <path d="M17.74,155.43c-3.83,9.38-12.13,13.67-17.74,15.56h26.08v-7.84c-3.11-2.32-5.91-4.91-8.34-7.72Z" style="fill: url(#Nova_amostra_de_gradiente_1-2);"/>
        <path d="M50.6,132.31c1.09,12.06,6.18,22.92,13.98,29.87.25-.06.5-.12.75-.19-7.9-6.77-12.17-15.61-12.36-25.63-.3-15.51,9.28-33.25,25.65-47.55-1.41-1.85-2.57-3.11-4.52-4.56-4.93,3.57-10.98,8.42-15.28,14.63-6.32,9.13-9.31,21.31-8.21,33.43Z" style="fill: url(#Nova_amostra_de_gradiente_1-3);"/>
        <path d="M104.48,150c5.96-8.34,9.02-17.37,9.08-26.83.05-8.63-2.48-17.33-7.32-25.18-10.08-16.32-28.43-26.75-47.89-27.23-.32,0-.6-.18-.72-.43-.12-.25-.06-.54.15-.74.25-.23,1.04-.72,3.45-2.16,4.08-2.46,10.91-6.56,14.39-9.43,8.65-7.13,13.49-16.67,13.28-26.19-.18-8.2-5.08-15.77-12.29-20.9-2.77-1.97-6.27-4.07-10.56-5.88C52.6-.62,45.71.02,41.58.02,39.49.02,2.78.03.56.06v2.12c1.58-.05,37.65-.08,39.14-.11.24,0,.48,0,.72,0,5.22,0,10.3,1.14,14.71,3.29,9.75,4.76,21.39,15.7,21.49,27.15-.1,18.37-20.64,28.09-35.35,41.26-15.42,13.81-31.36,28.08-30.76,50.08-.18,12.75,5.29,24.68,15.39,33.57,9.84,8.66,23.23,13.63,36.73,13.63,5.94,0,11.76-.94,17.3-2.81,9.96-3.34,18.44-9.64,24.54-18.23ZM96.23,133.82c-3.71,14.2-16.92,28.26-28.92,31.94-3.79,1.09-7.87,1.65-12.11,1.65-11.12,0-22.2-3.83-28.89-9.98-10.08-8.67-15.36-21.68-14.48-35.69.97-15.4,9.13-29.82,21.83-38.57,1.98-1.43,17.26-11.01,19.76-11.39.47-.07.98-.11,1.51-.11,6.07,0,16.02,4.79,22.14,9.42.01.01.03.02.04.03,13.67,11.91,24.5,32.17,19.13,52.7Z" style="fill: url(#Nova_amostra_de_gradiente_1-4);"/>
        <path d="M162.07,70.3c-.02-.08-.03-.15-.03-.2-3.03-25.45-21.99-49.37-48.29-60.93-9.75-4.18-23.75-6.9-42.38-8.22.6.34,1.21.68,1.81,1.02.92.52,1.85,1.01,2.82,1.45,17.97,2.09,37.62,7.13,49.73,18.52,33.47,30.99,31.55,88.1,8.75,121.99-15.74,23.43-34.4,26.93-44.12,26.93-1.62,0-3.25-.1-4.85-.29-.27.11-.54.22-.8.33,1.95.11,3.89.17,5.77.17h0c12.72,0,23.36-2.47,31.62-7.33.02-.01.03-.02.05-.03,4.13-2.05,13.34-9.56,18.58-15.82,8.07-9.64,13.8-20.53,17.03-32.41,5.13-16.89,6.54-31.67,4.3-45.19Z" style="fill: url(#Nova_amostra_de_gradiente_1-5);"/>
      </g>
      <g>
        <path d="M89.87,78.63c-1.1-.67-2.25-1.33-3.42-1.94l-1.81-.95,1.85-.85c6.34-2.9,12.18-8.77,17.85-17.95l1.73,1.01c-3.73,6.81-9.17,14.28-14.95,20.5l-.56.6-.7-.43Z" style="fill: url(#linear-gradient);"/>
        <path d="M0,171.99l-.32-1.95c5.83-1.97,13.53-6.16,17.13-14.99l.62-1.51,1.07,1.23c2.38,2.75,5.14,5.3,8.18,7.58l.4.3v9.34H0Z" style="fill: url(#linear-gradient);"/>
        <path d="M63.92,162.92c-7.98-7.11-13.2-18.24-14.31-30.53-1.12-12.35,1.94-24.77,8.39-34.09,4.46-6.44,10.64-11.33,15.52-14.87l.6-.43.59.44c2.1,1.56,3.32,2.93,4.71,4.75l.57.74-.71.62c-16.14,14.11-25.6,31.59-25.3,46.78.19,9.71,4.34,18.31,12.01,24.89l1.43,1.23-1.82.5c-.26.07-.51.14-.77.2l-.51.12-.39-.35Z" style="fill: url(#linear-gradient);"/>
        <path d="M62.63,172.04c-13.75,0-27.38-5.06-37.39-13.88-10.32-9.09-15.91-21.28-15.73-34.33-.62-22.42,15.5-36.85,31.09-50.81,3.64-3.26,7.67-6.34,11.57-9.31,12.02-9.18,23.37-17.84,23.45-31.21-.09-10.45-10.85-21.33-20.93-26.25-4.27-2.08-9.2-3.18-14.27-3.18-.23,0-.46,0-.69,0-.66.01-7.78.03-16.02.04-10.42.02-22.24.04-23.11.07l-1.03.03V-.93h.99c2.23-.03,38.75-.04,41.03-.04.36,0,.73,0,1.13,0,.46,0,.95-.01,1.47-.01,4.7,0,11.48.58,22.25,5.11,3.79,1.59,7.41,3.6,10.76,5.98,7.9,5.62,12.53,13.52,12.71,21.69.21,9.83-4.76,19.66-13.65,26.98-3.54,2.91-10.41,7.04-14.51,9.51-.98.59-1.87,1.13-2.49,1.51,19.46.78,37.72,11.33,47.82,27.68,4.95,8.01,7.53,16.9,7.47,25.71-.06,9.67-3.18,18.89-9.26,27.4-6.22,8.76-14.88,15.19-25.04,18.6-5.65,1.9-11.58,2.86-17.62,2.86ZM54.93,72.67c-.48,0-.94.03-1.36.1-2.1.32-16.82,9.41-19.32,11.22-12.46,8.59-20.46,22.73-21.41,37.82-.86,13.7,4.29,26.41,14.13,34.87,6.54,6.01,17.36,9.74,28.24,9.74,4.15,0,8.13-.54,11.83-1.61,12.02-3.69,24.69-17.7,28.23-31.23,5.55-21.22-6.67-41.11-18.82-51.7-5.97-4.52-15.66-9.2-21.52-9.2Z" style="fill: url(#linear-gradient);"/>
        <path d="M90.48,172.08c-1.9,0-3.87-.06-5.83-.17l-.32-1.92c.26-.11,1.03-.43,1.03-.43l.26.03c1.56.18,3.15.28,4.73.28,9.52,0,27.8-3.44,43.29-26.49,22.56-33.55,24.49-90.05-8.6-120.7-10.09-9.49-26.63-15.63-49.16-18.26l-.16-.02-.14-.06c-.89-.4-1.81-.88-2.89-1.49,0,0-1.31-.74-1.8-1.02l.56-1.87c18.81,1.33,32.78,4.05,42.71,8.3,26.63,11.7,45.82,35.93,48.89,61.73l.02.15c2.26,13.67.85,28.6-4.33,45.64-3.26,11.98-9.05,23.01-17.22,32.76-5.32,6.34-14.69,13.98-18.9,16.07-8.4,4.95-19.21,7.47-32.12,7.47Z" style="fill: url(#linear-gradient);"/>
      </g>
      <g>
        <path d="M90.39,77.78c5.87-6.33,11.25-13.82,14.8-20.3-4.31,6.97-10.32,14.68-18.28,18.33,1.19.63,2.36,1.28,3.48,1.97Z" style="fill: url(#linear-gradient-2);"/>
        <path d="M17.74,155.43c-3.83,9.38-12.13,13.67-17.74,15.56h26.08v-7.84c-3.11-2.32-5.91-4.91-8.34-7.72Z" style="fill: url(#linear-gradient-2);"/>
        <path d="M50.6,132.31c1.09,12.06,6.18,22.92,13.98,29.87.25-.06.5-.12.75-.19-7.9-6.77-12.17-15.61-12.36-25.63-.3-15.51,9.28-33.25,25.65-47.55-1.41-1.85-2.57-3.11-4.52-4.56-4.93,3.57-10.98,8.42-15.28,14.63-6.32,9.13-9.31,21.31-8.21,33.43Z" style="fill: url(#linear-gradient-2);"/>
        <path d="M104.48,150c5.96-8.34,9.02-17.37,9.08-26.83.05-8.63-2.48-17.33-7.32-25.18-10.08-16.32-28.43-26.75-47.89-27.23-.32,0-.6-.18-.72-.43-.12-.25-.06-.54.15-.74.25-.23,1.04-.72,3.45-2.16,4.08-2.46,10.91-6.56,14.39-9.43,8.65-7.13,13.49-16.67,13.28-26.19-.18-8.2-5.08-15.77-12.29-20.9-2.77-1.97-6.27-4.07-10.56-5.88C52.6-.62,45.71.02,41.58.02,39.49.02,2.78.03.56.06v2.12c1.58-.05,37.65-.08,39.14-.11.24,0,.48,0,.72,0,5.22,0,10.3,1.14,14.71,3.29,9.75,4.76,21.39,15.7,21.49,27.15-.1,18.37-20.64,28.09-35.35,41.26-15.42,13.81-31.36,28.08-30.76,50.08-.18,12.75,5.29,24.68,15.39,33.57,9.84,8.66,23.23,13.63,36.73,13.63,5.94,0,11.76-.94,17.3-2.81,9.96-3.34,18.44-9.64,24.54-18.23ZM96.23,133.82c-3.71,14.2-16.92,28.26-28.92,31.94-3.79,1.09-7.87,1.65-12.11,1.65-11.12,0-22.2-3.83-28.89-9.98-10.08-8.67-15.36-21.68-14.48-35.69.97-15.4,9.13-29.82,21.83-38.57,1.98-1.43,17.26-11.01,19.76-11.39.47-.07.98-.11,1.51-.11,6.07,0,16.02,4.79,22.14,9.42.01.01.03.02.04.03,13.67,11.91,24.5,32.17,19.13,52.7Z" style="fill: url(#linear-gradient-2);"/>
        <path d="M162.07,70.3c-.02-.08-.03-.15-.03-.2-3.03-25.45-21.99-49.37-48.29-60.93-9.75-4.18-23.75-6.9-42.38-8.22.6.34,1.21.68,1.81,1.02.92.52,1.85,1.01,2.82,1.45,17.97,2.09,37.62,7.13,49.73,18.52,33.47,30.99,31.55,88.1,8.75,121.99-15.74,23.43-34.4,26.93-44.12,26.93-1.62,0-3.25-.1-4.85-.29-.27.11-.54.22-.8.33,1.95.11,3.89.17,5.77.17h0c12.72,0,23.36-2.47,31.62-7.33.02-.01.03-.02.05-.03,4.13-2.05,13.34-9.56,18.58-15.82,8.07-9.64,13.8-20.53,17.03-32.41,5.13-16.89,6.54-31.67,4.3-45.19Z" style="fill: url(#linear-gradient-2);"/>
      </g>
    </g>
  </g>
</svg>