<?xml version="1.0" encoding="UTF-8"?>
<svg id="Camada_2" data-name="Camada 2" xmlns="http://www.w3.org/2000/svg" viewBox="0 0 1071.78 348.13">
  <g id="Camada_1-2" data-name="Camada 1">
    <path d="M174.79,27.44c.41,7.46,2.75,16.35,2.92,23.6.44,18.61-4.83,34.49.06,53.94,1.68,6.67,2.89,14.31,5.11,21.7.26.86,1.74.72,1.91,1.44,1.71,7.19-3.38,25.97-11.04,28.81-3.28,1.22-4.73-1.93-7.33-1.57-.73.1.09,2.45-3.06,2.16-2.85-.26-4.16-2.49-8.06-2.2-1.95.15-1.54,3.74-8.73,2.86-6.35-.78-15.32-14.02-15.82-20.19-.53-6.54,2.41-8.25,3.75-13.38,2.86-10.97,5.76-23.4,6.36-34.64,1.04-19.48-1.92-39.38,1.96-58.54l3.38.12,1.47,1.53,1.15,22.35c4.97.06,1.84-8.63,3.47-11.02l3.52-.98c.02,1.39-.18,2.9.23,4.26,2.52,8.38,3.59,18.28,5.05,26.97.18,1.05.27,3.97,1.71,3.77-.95-3.22,1.38-5.14,1.96-7.55,2.89-12.02,3.08-26.31,5.28-38.72.41-2.31,1.85-5.81,4.76-4.73ZM175.13,112.16c-.25-.57-2.22-10.74-2.37-12.18-2.16-21.03,3.15-45.14,1.04-66.54l-6.05,39.43c-2.2,3.56-2.84,16.71-8.46,16.63-5.97-.09-9.49-20.47-11.42-24.62l-4.05-26.43c-1.04,19.08,1.37,39.56-.02,58.48-.38,5.16-1.89,12.81-3.01,17.82-.07.33-3.66,2-1.98,5.68.51.58,12.88-5.11,14.99-2.5-5.67,3.74-14.66,3.22-17.44,10.55-.34.89-2.46,8.7-2.38,9.16.85,4.55,7.76,15.36,12.59,16.58,6.88,1.74,6.74-6.72,11.83-6.78,3.94-.05,11.26,7.64,16.21,4.77,2.44-1.41,7.71-17.01,7.15-20.2-.26-1.52-2.71-6.07-3.87-7.15l-10.08-5.41c4.62-1.28,7.23.57,10.99,2.99-1.71-2.95-1.26-6.31-2.03-9.29-.2-.78-1.54-.72-1.65-.97ZM159.81,85.42c1.47-4.26-1.44-7.65-1.91-10.58-.89-5.5-2.06-10.76-3.03-15.96-.4-2.13,1.04-6.51-1.04-7.45-1.31,10.92-2.24,18.85,2.32,29.17.72,1.64,1.34,5.43,3.67,4.82Z"/>
    <path d="M899.6,27.55l9.13,50.87c1.44.2,1.54-2.72,1.71-3.77,1.73-10.33,3.56-20.86,5.28-31.23l3.52.98c1.68,2.46-1.38,10.11,3.47,12.02l1.22-23.28c4.11-6.48,5.58,1.93,6.28,6.28,2.42,15.06-.37,34.76.47,50.54.6,11.23,3.5,23.67,6.36,34.64.65,2.5,3.18,5.97,3.61,8.38,1.81,10.21-10.3,28.89-21.57,24.6-1.52-.58-1.14-2.12-2.83-2.26-3.89-.32-5.21,1.94-8.06,2.2-3.15.29-2.33-2.06-3.06-2.16-2.6-.36-4.05,2.78-7.33,1.57-7.66-2.84-12.76-21.62-11.04-28.81.17-.72,1.65-.58,1.91-1.44,6.1-20.32,7.65-33.33,7.11-54.79-.15-5.87-2.14-14.28-2.04-19.96.12-7.47,2.64-16.79,3.02-24.5l2.87.12ZM914.35,88.01c-1.74,1.05-2.09,1.9-4.17.52-4.77-3.18-8.42-28.64-9.46-35.61-.56-3.75.91-7.61-1.78-11.22l-1.22-8.26,1.02,67.52-6.02,21.47c3.09-2.19,7.14-4.05,10.98-2.5-7.22,2.75-15.67,7.02-13.93,15.95.27,1.4,2.11,6.7,2.72,8.26,6.89,17.53,12.69,3.2,20.63,3.29,4.88.06,4.99,7.85,11,7,5.2-.74,13.54-12.81,13.52-17.52-.01-2.42-3.44-10.6-5.45-12.48-3.38-3.14-4.88-1.99-7.73-3.09-.97-.37-1.74-3.45-5.75-1.94,3.27-5.27,6.27-.03,6.67.03.96.13,2.18-.72,3.45-.51,1.19.2,2.17,1.98,3.87,1.48,1.68-3.68-1.9-5.35-1.98-5.68-1.19-5.35-2.63-13.26-3.01-18.82-1.27-18.68.93-38.66-.02-57.48l-6.25,34.23c-2.24,4.31-2.73,12.69-7.1,15.35ZM915.31,82.05c4.44-9.55,3.87-19.43,2.4-29.61-2.03.5-.65,4.59-1.04,6.45-1.1,5.29-2.1,10.42-3.03,15.96-.5,2.97-3.36,6.31-1.91,10.58l3.59-3.38Z"/>
    <path d="M106.75,43.49c.63,2.27,1.82,3.95,2.1,6.42,2,17.98-2.19,40.2-.06,58.05,1.39,11.61,10.7,24.95,6.93,36.87-1.79,5.67-7.73,12.33-14.24,10.59-.8-.22-.58-2.05-1.17-2.04-1.52.04-6.71,3.59-9.05,3.98-6.66,1.12-13.09-.08-17.84-5.03-.74-.77-6.59-9.74-6.66-10.35-.32-2.67-.28-9.36.13-11.99.83-5.32,5.6-14.31,6.71-20.29,3.85-20.65-1.92-43.85,4.25-64.26,6.05,1.55,3.37,8.67,4.06,13.42.76,5.23,3.02,11.27,3.03,16.97l2.88,7.6c-.62-7.98,1.88-15.51,3.01-23,6.34-1.29,5.34,6.11,6.26,10.26.21.97.37,2.99,1.73,2.74,0-1.75-.15-3.53.24-5.26,1.22-5.42,2.69-11,3.72-16.28.44-2.28-.81-6.68.99-8.01l2.99-.39ZM104.82,121.43l4.97-.5c-2.73-5.69-4.99-13.71-5.05-19.99-.03-3.32,1.1-6.08,1.11-8.97.05-14.17.29-28.42-.54-42.55-.88,0-1.31,13.97-1.54,15.46-.92,5.75-3.32,18.19-5.06,23.93-1.11,3.65-3.98,10.2-8.91,7.13-4.52-2.82-8.84-24.94-9.23-30.76l-2.74-7.75c-.28,17.41,2.49,35.27-1.1,52.4-.71,3.39-3.07,8.41-3.9,12.1l2.26.47.71,1.99c-11.87,5.3-3.43,28.17,6.67,28.72,5.35.29,8.45-6.74,11.85-6.61l11.41,5.82c.63-2.01,6.71-7.15,7.04-8.63.4-1.82.37-8.82.12-10.84-.04-.34-2.8-5.68-3-6-1.33-2.07-5.38-2.42-5.07-5.43ZM93.81,93.43c4.34-9.28.8-17.68,0-27-3.34,1.39-1.5,5.73-2.03,8.46-.3,1.52-1.66,2.58-1.9,4.1-.76,4.97-2.63,13.34,3.93,14.44Z"/>
    <path d="M972.72,73.43c1.35.25,1.53-1.79,1.73-2.74.77-3.65.87-7.53,2.27-11.25l3.81,1.19,4.17,22.81c1.94-6.3,2.17-12.83,3.24-19.26.22-1.31,1.47-2.6,1.72-4.28.68-4.51-2.13-13.21,4.04-14.44,5.2,17.2,1.8,35.79,3.02,53.48,1,14.46,9.67,29.56,8.06,43.06-.06.5-4.82,7.59-5.56,8.45-1.78,2.09-6.47,6.61-9.09,6.99-.48.07-9.04-.08-9.65-.19-2.29-.39-6.91-3.39-8.48-3.62-2.43-.36-6.21,5.3-12.32-1.94-2.65-3.13-5.09-9.64-5.01-13.7.19-8.72,6.96-20.76,8.06-30.01,2.12-17.72-3.04-43.35.02-59.97.37-2.01,2.15-3.99,3.45-5.53,3.68,2.14,1.89,5.44,2.56,8.42,1.28,5.74,2.6,11.37,3.89,17.11.38,1.68-.07,3.7.06,5.44ZM992.72,53.44c-1.05,8.82-4.31,36.44-10.5,41.99-4.43,3.98-8-1.98-9.21-5.81-2.79-8.79-4.22-22.43-5.42-31.58l-1.87-8.61c.06,14.5-.09,29.02-.05,43.53,0,2.63,1.14,5.1,1.13,7.95-.03,6.83-2.79,14.59-5.1,20.99h5c-7.07,5.64-9.14,12.05-8.06,21.06.14,1.16,6.43,9.13,7.71,9.35l10.86-5.81,12,7.55c2.42-1.33,4.68-3.05,6.53-5.12,4.15-4.65,7.07-9.7,5.92-15.97-.45-2.46-3.27-6.98-4.9-9.1l1.92-1.87c-8.48-20.92-4.72-43.1-4.96-65.07l-.99-3.48ZM977.72,93.43c2.53.25,4.79-3.25,4.86-5.45.14-4.74-2.04-12.83-2.85-18.06-.23-1.49-.09-3.08-2.01-3.48-.8,9.31-4.34,17.72,0,27Z"/>
    <path d="M478.48,10.75c2.02,1.82,7.75,21.26,9,25.47,5.14,17.38,8.46,36.17,13.6,53.39,6.76,22.67,21.29,46.32,18.72,70.34-.35,3.28-2.7,6.39-2.34,10.22-4.71,5.42-8.92,4.42-14.97,5.48-1.35.24-2.62,1.54-4.28,1.72-14.65,1.61-32.77-1.65-35.38-18.5-2.22-14.35.6-27.5,5.06-40.6,5.78-16.98,10.64-35.44,9.92-54.37-.63-16.67-4.96-33.8-3.09-51.01.33-3.07,1.28-4.37,3.76-2.14ZM490.09,60.16c-2.99-10.85-5.07-22.24-8.42-33.12l-4.89-11.6c1.67,12.05,1.18,24.39,1.98,36.5,1.21,18.32,2.31,26.92-1.23,45.75-.82,4.38-3.81,10.48-3.26,14.73l2.99-2,.49,1.99c-1.56.17-3.45,2.11-4.28,3.28-6,8.47-8.57,23.86-7.59,34.13.21,2.19,2.36,14.64,2.93,15.81.22.45,4.08,4.08,4.78,4.48,5.62,3.26,24.67,3.05,31.57,2.2,2.73-.34,8.35-1.78,9.18-4.79,1.29-4.64.89-23.96.35-29.5-.84-8.74-7.2-24.83-16.92-26.6l1.42-1.92,6.56,2.45c-5.56-13.71-8.99-27.91-12.88-42.12-.89-3.25-2.15-7.36-2.78-9.67Z"/>
    <path d="M604.21,119.99c1.15,3.39,3.88,9.08,4.49,12.99,1.31,8.36.72,26.31-3.14,33.77-7.57,14.61-40.1,13.06-51.49,3.41.35-3.82-1.99-6.93-2.34-10.21-2.57-23.78,11.94-47.99,18.68-70.36,6.8-22.55,10.79-46.19,18.4-68.59.95-2.79,6.85-18.53,7.99-8.11.66,6.1.52,18.86,0,25.09-3.03,35.58-4.19,47.73,7.41,82.01ZM597.75,112.43c.57-.84-3.46-13.24-3.9-15.59-3.97-20.86-2.61-36.11-1.08-56.9.52-7.05,1.04-14.2,1.7-21.3.1-1.1,1.18-3.4-.7-3.2l-27.99,96.5,6.56-2.45,1.42,1.92c-8.01,1.18-13.42,12.38-15.44,19.51-2.19,7.73-2.43,25.79-1.56,34.01.43,4.05,1.7,5.24,5.56,6.41,5.44,1.65,24.91,1.86,30.7.84,10.71-1.89,12.15-14.23,12.72-23.28.8-12.6-1.86-30.45-12.98-37.99l4.99,1.5Z"/>
    <path d="M378.17,135.08c.07.27,1.44.36,1.59,1.05.28,1.27,1.07,8.48,1.07,9.84-.05,10.95-7.32,24.71-17.69,29.25-3.6.35-17.57-12.28-20.29-15.59-4.2-5.12-6.99-9.94-8-16.76-1.59-10.68,6.21-33.28,8.21-45.68,4.72-29.2,4.83-60.56,8.79-90.19.12-.88,2.13-6.51,2.47-6.61,3.3-.89,4.97,1.72,5.41,4.61,2.16,14.31,1.08,29.86,3.05,44.94,3.38,25.78,9.12,60.24,15.39,85.13ZM372.78,124.42c-2.14-8.46-2.47-18.03-4.05-26.44-1.72-9.15-5.21-18.8-6.9-28.1-3.44-18.99-4.31-42.21-5.04-61.96-.04-1.21.75-3.72-.99-3.48-1.49,4.44-.56,9.05-1.09,13.41-3.7,30.28-4.65,61.9-10.19,91.8-.43,2.33-2.67,4.71-1.72,7.76l1.99-1.53,1.99,1.51c-2.15.03-5.05,5-5.74,6.77-2.82,7.25-3.33,20.95.08,27.92,1.21,2.48,11.56,12.39,14.18,14.3,1.75,1.27,6.54,4.96,8.5,4.47,12.16-9.04,16.97-24.87,9.82-38.79l-11.84-14.65c4.82-.07,7.4,4.73,10.98,6.99Z"/>
    <path d="M717.68.51c.26.22,1.92,5.83,2.01,6.5,4.44,32.63,3.53,68.97,10.14,100.84,3.43,16.52,10.56,26.54,4.15,44.31-1.84,5.1-20.72,23.53-25.58,23.06-14.12-7.2-19.57-22.97-16.38-38.02,8.52-40.26,16.65-75.31,18.68-117.3.19-3.84.58-12.58,1.26-15.73.56-2.56,3.74-5.32,5.71-3.66ZM728.73,117.43c1.2-3.29-1.24-5.68-1.68-7.81-5.82-27.85-4.8-56.65-8.3-84.69-.67-5.36-1.54-10.38-2.13-15.87-.11-1.03-.4-4.7-1.87-4.61-.31,4.39.41,9.15-.02,13.48-1.48,15.14-2.25,30.34-4.77,45.23-1.93,11.42-3.57,22.95-6.98,34.02l-4.25,26.74c2.96-.73,5.83-5.42,8.53-6.48,5.4-2.1-4.63,7.48-5.03,7.98-12.2,15.07-9.66,34.78,6.2,45.83,1.8.26,14.79-10.54,16.84-12.76,8.31-9.01,9.54-22.21,5.53-33.61-.88-2.51-3.37-5.79-5.05-7.95l2.99.5Z"/>
    <path d="M46.43,150.06c-2,3.13-7.19,6.08-11.05,5.33-6.51-1.27-3.68.03-7.05.04-1.22,0-2.24-1.62-3-1.65-1.53-.07-5.5,4.39-11.04,3.72-1.24-.15-8.12-6.27-9.04-7.51-2.16-2.91-5.58-10.33-5.22-13.84.29-2.83,2.02-11.29,2.87-14.17,1.26-4.23,4.58-8.4,5.55-13.24,2.44-12.22-2.72-33.22,1.65-44.56,1.16-3.01,4.03-4.14,4.72-.25.76,4.31.8,10.03,1.02,14.48,4.4-1.81,1.79-8.26,4.48-11.01l3-.98,1.36,1.65c.31,10.33,2.1,20.29,3.66,30.35,4.36-12.81,5.39-25.97,8.98-39.02,1.13-1.97,3.96,1.6,4.3,2.73,4.26,13.92-1.56,33.91.33,48.67,1.71,13.35,13.98,24.4,4.49,39.25ZM41.58,122.23c.15-3.75-2.32-6.34-2.75-10.3-1.65-15.08,2.08-31.53,0-46.49l-6.46,31.02c-1.55,2.7-2.23,6.33-5.44,7.53-8.74,1.96-12.29-25.35-13.8-30.39-.52-1.73.36-2.61-2.28-2.16-.91,12.35,1.22,26.33-.02,38.48-.63,6.15-3.2,7.61-4.97,12.03-1.31,3.26,3.85-1.21,2.97,1.96-.6,2.15-2.77,2.51-3.28,3.75-3.64,8.73-.78,18.39,6.81,23.76,7.45,5.28,10.08-2.76,15.98-2.89,3.62-.08,7.56,4.12,11.84,1.8,8.25-4.49,7.46-21.82-.31-25.91l.1-1.9,1.64-.27ZM24.82,99.43l-1.07-17.42-2.91-10.57c.06,9.76-4.18,20.51,3.98,27.99Z"/>
    <path d="M1042.71,98.42l1.22-8.26c3.06-6.93,1.64-15.3,3.25-22.75l2.93-.89,1.11.9c2.68,2.77.07,9.19,4.48,11.01.27-2.97-.03-17.7,3.49-16.99,2.51.5,3.38,8.19,3.55,10.46.99,12.78-1.94,29.88,2.03,41.97,1.01,3.07,3.19,5.68,4.1,8.9.52,1.85,2.98,12.91,2.92,14.14-.37,7.89-10.41,22.48-19.3,20.26-1.74-.44-5.18-3.36-6.3-3.38-1.85-.04-3.47,3.03-7.02-.4-1.68-.51-1.24,1.81-2.12,2.03-9.73,2.34-16.67-12.14-15.27-20.43,1.41-8.38,7.33-17.62,7.93-25.06,1.01-12.71-1.92-25.58-1.03-38.02.33-4.62.54-10.85,4.54-13.44l1.28,1.7,8.23,38.27ZM1060.7,111.93c-1.94-11.62,1.45-28.31,0-40.49-2.22-.36-2,.16-2.5,1.95-2.23,8.01-2.16,16.61-6.28,24.75-7.45,14.73-12.86-1.25-14.91-9.52l-4.3-23.18c-2.46,18.42,3.84,38.65-3.09,56.41l1.96.66.1,1.89c-7.12,3.62-8.2,15.82-3.82,22.35,5.94,8.86,9.42,1.68,15.18,1.95,5.19.25,9.17,7.31,15.6,3.16,8.01-5.17,10.67-14.58,7.6-23.49-.77-2.22-2.89-3.18-3.54-4.47-1.48-2.97,4.24,1.11,2.98-1.97-1.06-2.57-4.5-7.09-4.99-10.02ZM1050.32,95.08c2.71-7.7,1.06-15.93-.12-23.66-2.82,9.52-1.99,19.42-4.5,29l4.62-5.34Z"/>
    <path d="M413.78,24.94l2.49-1.5c1.23.85,1.9,2.09,2.7,3.31,2.82,4.29,8.34,20.83,9.71,26.29,4.88,19.5,3.9,41.43,8.38,61.61,3.01,13.52,11.09,28.78,8.65,43.21-.91,5.42-6.19,12.89-11.71,14.28-3.97,1-13.53,1.11-17.52.25-.54-.12-7.99-5.05-9.18-5.99-6.99-5.54-9.62-14.68-8.47-23.42,2.24-16.95,14.94-30.72,14.94-47.05V24.94ZM416.78,28.44v71.49c0,3.58-2.12,9.26-1.99,15.92,0,.36-3.72,3.31-4.84,5.25-3.6,6.25-7.72,19.78-7.74,26.82s5.2,15.45,11.89,18.68c7.07,3.41,15.47,4.65,22.17-.19,4.84-3.5,5.6-9.67,5.6-15.48,0-8.24-3.46-23.66-7.62-30.47-.25-.4-8.14-8.02-4.97-7.02l4.5,2.99c.48-.67-.95-10.34-1.23-12.26-2.96-20.21-4.45-41.01-10.1-60.9l-5.66-14.84Z"/>
    <path d="M922.74,320.39c-.5-.35-3.73-10.24-3.97-11.54-2.03-10.7,1.35-23.41-5.55-32.43-10.41,13.03-4.68,30.65-8.5,45.97l-3.48-2.01c.15-3.36-1.75-5.88-2.44-8.56-5.11-19.74-4.58-40.42-8.13-59.86-.57-3.11-3.83-10.21-4.04-13.05-.43-5.98,7.78-11.4,12.88-12.34,2.15-.4,3.02,1.57,4.76,1.79,3.57.45,12.39.72,15.97.5,6.62-.4,10.2-6.38,17.03,2.49,3.35,4.35,2.39,11.29,1.38,16.48-1.3,6.72-5.52,15.33-6.85,22.15-2.7,13.85-1.72,28.66-4.85,42.14-.74,3.2.89,7.98-4.21,8.26ZM930.71,260.4c-.89.96-4.12.97-3.97-.49.06-.62,4.56-1.64,6.2-5.78,2.84-7.16,6.3-21.03-3.28-24.26-2.1-.71-9.19,4.33-12.43,4.63-6.56.61-15.53-6.64-23.45-1.53-5.22,3.37-1.14,16.81.92,21.94.87,2.18,3.77,4.75,2.53,6.49l-2.49-1.99c-1.35,5.36,1.33,10.05,1.91,14.58.37,2.92-.22,5.9.18,8.82,1.32,9.56,4.1,19.13,4.91,28.6,1.75.23.94-2.26.99-3.48.43-9.71.36-20.36,4.96-29.04,1.8-3.41,4.91-7.44,8.74-4.16,4.23,3.62,4.36,26.51,5.35,33.13.19,1.24,1.4,5.22,2.93,5.55,1.19-7.36.36-15.06,1.09-22.41.42-4.23,1.31-10.7,1.93-15.07.75-5.27,2.64-10.21,2.98-15.52Z"/>
    <path d="M657.75,95.93c1.59,20.92,23.56,45.61,11.21,65.21-9.91,15.73-40.74,17.86-43.28-5.14-1.43-12.98,4.12-21.04,6.82-32.32,6.66-27.84,5.44-58.87,15.32-85.67.93-2.53,5.43-14.14,7.45-14.56l2.49,1.5c1.3,23.13-1.74,48.09,0,70.99ZM654.75,99.93V28.44l-10.95,33.55c-.75,18.5-2.57,36.61-7.05,54.43l5.99-1.49c-1.43,1.89-4.29,3.62-5.46,5.54-4.57,7.47-5.42,15.82-6.61,24.39-.34,2.41-2,4.54-1.88,6.99.05.97,2.1,9.42,2.52,10.53,3.34,9,17.96,7.71,25.3,4.41,18.11-8.13,13.13-31.48,4.97-45.69-1.11-1.94-4.84-4.89-4.84-5.25.14-7.83-1.24-9.57-1.99-15.92Z"/>
    <path d="M182.5,231.72c1.58,1.76,2.69,5.76,2.3,8.11-.48,2.9-3.38,9.12-3.93,12.14-3.02,16.53-2.78,35.02-6.3,51.69-1.28,1.17-4.15,22.58-7.75,18.73-3.68-15.31,1.85-32.95-8.5-45.97-5.92,6.28-3.74,14.94-4.51,22.47-.55,5.38-1.83,13.38-3.59,18.44-1.4,4.01-3.08,4.16-5.19.36-3.47-15.93-1.93-32.67-5.46-48.54-2.44-10.98-13.38-31.14-3.22-39.71,7.54-6.36,8.37-.96,14.95-.57,3.58.22,12.41-.05,15.97-.5,1.52-.19,2.72-1.94,4.04-1.94.95,0,10.25,4.24,11.19,5.29ZM173.82,261.41c2.79-5.74,9.94-23.34,4.54-28.05-6.7-5.85-17.89,1.7-24.05,1.14-3.46-.32-7.87-4.32-11.93-4.06-10.04.65-6.6,16.89-4.03,22.98,1.47,3.49,2.4,5.08,6.47,6.01l-4,.98c-1.16,3.56,1.41,5.99,1.91,8.61,1.18,6.2,2.42,15.78,3.02,21.98.72,7.38-.32,15.04,1.09,22.41,4.11-2.96,2.44-8.56,3-12.48,1.08-7.56,2.54-15.08,3.06-22.74l5.42-4.81c10.5,7.07,9.99,23.08,10.5,34.55.05,1.22-.75,3.71.99,3.48l3.75-18.75c.07-11.23,3.25-22.1,3.25-33.23l-2.98,2Z"/>
    <path d="M307.44,152.07c-5.39,5.55-13.99,9.88-21.87,8.08-6.38-1.45-17.55-13.81-17.69-20.38-.1-4.62,1.61-10.14,3.06-14.5.28-.84,1.53-.91,1.77-1.63,10.02-29.22,9.11-58.65,14.87-88.92.69-3.63-.17-6.71,2.24-10.27,5.03.27,3.49,4.97,4.25,8.22,3.88,16.52,5.46,35.6,8.49,52.51,2.01,11.23,3.84,22.52,6.34,33.65,1.05,4.67,4.22,11.86,4.8,16.19,1.06,7.8-1.09,11.73-6.26,17.06ZM306.78,123.42c-1.16-3.9-1.23-8.7-2.07-12.42-5.74-25.49-9.19-46.95-12.04-72.95-.15-1.4-.53-6.08-1.87-6.62.95,3.32-1.61,5.93-1.95,8.55-3.08,23.28-3.45,46.74-8.16,69.83-.49,2.41-2.95,4.49-1.81,7.55l2.17.07c3.6,1.47-1.41,2.01-1.87,2.34-3.43,2.46-4.52,7.56-5.41,10.92-.23.86-1.77.67-1.95,1.41-2.28,9.42,6.09,21.77,15.03,24.75,7.94,2.65,24.36-10.35,23.87-18.87-.46-8.03-10.51-16.52-15.93-21.55,4.94.41,8.35,4.2,11.99,6.99Z"/>
    <path d="M240.35,150c-.99,1.14-8.86,7.23-9.92,7.58-8.11,2.69-14.39.63-20.15-5.12-2.1-2.1-6-7.78-6.34-10.64-1.42-11.96,5.16-21.81,7.64-33.13,5.37-24.42,4.1-52.18,9.67-76.32.26-1.14,1-3.55,2.1-3.9l3.28,1.66c.17,6.07,2.18,12.09,3.09,17.91,3.47,22.21,5.66,43.36,10.37,65.62,2.72,12.89,10.28,24.87.28,36.34ZM238.79,124.42l-3.07-19.41c-4.51-15.01-6.38-31.21-8.49-46.53-.82-5.93-.42-14.13-1.44-19.53-.3-1.59-1.42-3.02-2.97-3.52-.34,6.57-.4,13.93-1.09,20.42-1.5,14.03-2.9,31.19-4.97,45.02-.8,5.32-4.35,13.04-4.95,18.06-.06.5,0,1,0,1.49.36.48,6.06-5.71,5.98-1.51-7.04,3.42-11.91,12.91-10.81,20.75.89,6.31,10.23,16.28,17.2,15.73,5.05-.4,16.27-8.58,17.4-13.67s-.73-9.88-3.78-13.76c-1.7-2.16-8.93-7.43-8.99-8.03-.49-4.67,9.63,4.06,9.97,4.5Z"/>
    <path d="M781.72,24.44l3.96,14.55c2.88,25.87,3.02,54.11,11.11,78.87,2.24,6.86,7,13.44,6.94,21.08-.06,6.85-11.19,19.72-17.77,21.21-8.14,1.84-16.03-2.67-21.87-8.08-.39-.36-5.11-6.05-5.29-6.43-3.47-7.59,1.97-18.25,3.66-25.98,6.37-29.03,8.57-58.94,15.03-86.95.74-3.21-.88-7.98,4.22-8.27ZM794.55,119.28c.58-.7-3.05-7.02-3.5-8.68-5.88-21.92-5.05-47.83-8.55-70.44l-2.76-8.73c-1,4.64-.45,9.96-1.06,14.44-2.35,17.12-4.81,34.82-8.24,51.75-1.7,8.4-5.52,17.42-5.21,25.78,1.43-1.59,9.47-9.57,9.5-4-5.23-.05-14.46,14.69-14.59,18.53-.23,6.77,13.09,17.77,19.37,19.22,4.66,1.07,12.28-3.91,15.16-7.53,7.43-9.34,6.32-17.78.06-27.51-.42-.66-1.25-.77-1.98-.72l.09-1.91,1.71-.21Z"/>
    <path d="M992.65,310.35l-4.05-.54c-3.31-11.63-2.07-24.41-6.2-35.6-1.85-3.32-2.9-4.25-4.65-.27-.79,1.79-3.73,9.54-3.98,11.01-.73,4.19-.17,21.01-3.01,22.98-1.01.7-1.93.48-3.03.46l-6.77-24.74c-1.45-11.38-1.14-22.59-3.3-33.7-.91-4.65-5.28-10.7-2.01-16.13,1.44-2.4,7.59-5.3,10.45-5.34,7.98-.11,9.18-.94,16.16-2.04,5.17-.81,21.57,1,23.26,6.67.42,1.42-.51,9.84-.88,11.72-1.82,9.23-7.68,20.68-8.88,30.11-.53,4.15.41,8.8-.06,12.93-.82,7.19-2.79,14.93-3.04,22.46ZM1001.57,232.55c-3.53-1.91-7.56-.74-11.31-1.19-2.11-.26-3.7-2.17-5.97-1.95-2.96.28-6.8,4.61-9.12,5.02-4.47.78-10.63-5.3-16.47.71-2.43,3.92,3.14,21.42,9.01,22.28l-.5,1.99-5.5-1.49,2.06,23.93,4.96,21.54,2.62-20.05c2.37-4.01,2.93-15.54,8.82-15,10.86,6.05,7.04,20.53,8.61,30.49.27,1.73,1.06,3.97,2.93,4.56.43-9.33-.01-20.23,1.09-29.42.47-3.96,3.62-9.69,3.96-13.05.37-3.78-4.43,1.4-5.03-1.51,7.32-1.55,6.81-7.88,8.06-13.44.36-1.59,1.66-2.71,1.88-4.12s.35-8.6-.09-9.31Z"/>
    <path d="M91.55,226.73c.26.12.21,1.47.96,1.65,6.99,1.67,16.09-1.53,21.96,3.37,2.65,2.21,2.46,5.93,2.21,9.03-.44,5.52-4.21,13.64-4.82,19.18-1.76,15.96-1.26,27.5-6.39,43.61-.56,1.77-1.64,5.94-4.16,4.83-3.58-1.59-2.79-19.29-3.56-23.44-.65-3.53-3.83-8.65-4.47-12.52-2.61-3.87-6.1,5.44-6.41,7.53-.73,4.95-1.3,10.07-1.99,15.01s1.52,15.56-6.07,15.43c-.15-7.56-2.17-15.3-3-22.51-.47-4.13.46-8.78-.06-12.93-1.16-9.18-7.09-20.99-8.88-30.11-.62-3.15-1.52-10.49-.1-12.99,2.41-4.25,20.62-7.05,24.77-5.13ZM112.54,234.68c-6.04-5.26-11.73.53-16.17-.25-2.32-.41-6.16-4.74-9.12-5.02-2.27-.21-3.86,1.7-5.97,1.95-3.75.45-7.78-.72-11.31,1.19-.44.71-.32,7.84-.09,9.31s1.52,2.53,1.88,4.12c1.25,5.56.74,11.89,8.06,13.44-.6,2.91-5.4-2.26-5.03,1.51.33,3.37,3.48,9.09,3.96,13.05,1.1,9.18.66,20.08,1.09,29.42,1.87-.59,2.65-2.83,2.93-4.56,1.57-9.97-2.25-24.44,8.61-30.49,5.81-.54,7.18,11.98,8.73,16.26l2.71,18.79,4.96-21.54c-.23-7.88,1.9-15.03,2.07-22.91.03-1.57.26-1.75-1.5-1.52l-4.01,2c-2.11-2.19,1.31-2.02,2.5-3.46,2.9-3.53,9.13-17.6,5.71-21.28Z"/>
    <path d="M370.24,230.97c1.67,2.46,4.02,7.83,4.49,11,3.19,21.66-11.88,50.41-13.93,72.94-.78,8.57,1.08,23.61-2.96,31.04-4.65,8.53-5.65-10.51-6.1-13-.34-1.86-1.6-3.27-1.9-5.1-3.6-21.74-1.87-43.54-5.1-64.89-.25-1.66-1.51-2.97-1.71-4.29-1.58-10.57-3.6-31.55,5.24-39.26,6.28-5.47,18.36,6.26,21.96,11.57ZM356.43,222.79c-1.73-.96-4.67-2.15-6.11-.36-.54.66-3.85,7.68-4.2,8.81-2.76,8.76-.81,22.69,1.96,31.38,1.07,3.35,2.85,9.21,6.71,8.8l-2.53,1.6-3.47-1.6c3.2,6.88.87,13.93.95,20.44.2,15.85,2.9,30.64,5.14,45.96.11.79.68,3.61,1.41,3.59,1.83-13.45,2.33-26.87,3.61-40.4l10.88-40.12c-2.61-1.65-3.51,3.64-5.5,4.51-4.36,1.89,2.88-7.1,3.23-7.78,1.42-2.75,3.34-6.63,3.3-9.73-.03-2.7-2.91-12.11-4.34-14.68-.74-1.33-9.87-9.78-11.03-10.43Z"/>
    <path d="M837.12,155.03c-5.05-3.3-11.41-10.6-11.29-17,.15-7.59,4.27-16.86,5.81-24.19,4.99-23.72,8.23-47.32,12.03-70.96.46-2.86-.46-16.03,4.52-14.41,3.44,2.98,1.96,7.77,2.59,11.41,4.07,23.52,4.28,50.59,10,72.99,3.77,14.74,13.79,25.53.48,39.59-7.01,7.4-15.65,8.13-24.15,2.57ZM859.71,120.42c.29-.38-.8-5.27-1.1-6.39-4.59-17.48-6.85-39.82-8.81-58.18-.71-6.67-.36-13.77-1.57-20.41-1.41,1.19-2.16,2.75-2.45,4.55-2.67,16.88-3.29,35-6.12,51.87-1.44,8.6-5.92,19.49-6.96,28.03-.18,1.48.11,3.05.04,4.53,2.77-1.54,5.18-6.2,8.98-4.5-6.24,4.92-13.33,12.27-11.95,20.94.9,5.68,12.1,14.06,17.56,14.52,4.58.39,11.39-4.83,13.99-8.42,6.36-8.78,2.84-21.2-5.6-27.04l3.99.5Z"/>
    <path d="M706.33,226c6.34-6.35,13.81-13.23,19.79-2.47,7.27,13.08,2.61,26.29.69,39.45-3.62,24.92-1.47,51.07-7.12,75.86-.78,3.44-2.57,13.39-6,7.1-4.07-7.47-2.15-22.46-2.94-31.05-2.01-21.79-17.18-52.32-13.95-72.93,1.18-7.5,4.68-11.11,9.53-15.97ZM720.48,270.13c2.56-2.81,6.16-20.98,6.3-25.17.16-4.55-1.81-23.3-7.45-23.5-2.97-.11-11,6.54-13.09,8.94-5.69,6.51-8.02,17.35-4.38,25.4.92,2.04,5.87,7.61,5.87,8.11,0,.16-.91,1.81-1.96.84-1.57-1.45-2.88-3.87-4.53-5.34-.78-.15-.58.89-.5,1.49,2.19,15.42,10.82,32.22,12.04,47.96.36,4.57-.41,9.44-.03,14.03.49,5.86,3.36,11.97,2,18.5,3.05-1.56,1.58-6.74,2.04-9.44,3.45-20.2,3.86-28.38,3.86-49.05,0-3.26,1.34-8.19,2.08-11.49l-2.18,1.79-3.81-.81c-.07-1.81,2.61-1.04,3.73-2.27Z"/>
    <path d="M296.37,221.86c.34.16.44,1.37,1.14,1.51,2.02.42,4.16-.47,6.3.53,2,.93,4.52,6.82,4.9,9.09,2.16,12.69,2.4,18.88-1.26,31.57-8.73,18.86-9.82,39.96-13.63,60.14l-3.41,1.75c-.47-.04-2.17-3.19-2.33-3.82-4.25-16.73-3.09-35.01-7.95-52.05-3.77-13.21-13.28-25.2-6.12-39.48,1.54-3.07,13.34-11.49,16.38-11.71,1.83-.13,4.3,1.67,5.99,2.47ZM294.64,224.58c-4.72-2.95-15.7,4.87-17.59,9.58-5.38,13.34,2.88,27.72,14.74,33.76l-2.11,1.11-8.89-5.11c0,2.34,2.18,4.26,2.74,6.26,3.58,12.91,3.23,27.52,5.33,40.67.47,2.96,3.06,5.81,1.96,9.55,1.46-.18,1.68-4.34,1.87-5.62,1.55-10.6,2.57-23.4,5.21-33.79.82-3.24,7.97-20.04,6.9-21.58l-3.98,1.51c4.4-8.57,10.46-11.13,3.93-20.72-.77-1.12-2.96-2.2-3.55-3.14-1-1.59-5.95-12.1-6.55-12.48Z"/>
    <path d="M793.31,226.86c5.3,4.79,4.11,5.96,5.48,11.98.42,1.85,2.06,2.96,1.96,4.98-.1,1.89-4.16,14.85-5.11,17.82-.27.85-3.1,4.74-3.85,7.34-5.04,17.53-3.94,36.46-8.3,53.69-.52,2.07-1.61,4.23-4.26,3.72-2.18-.68-3.2-13.28-3.61-15.39-1.81-9.4-2.89-19.78-5.14-28.85-2.57-10.35-11.44-27.97-9.7-38.19.26-1.52,1.64-2.58,1.9-4.09.64-3.74.41-13.82,5.03-15.96,1.98-.92,4.24-.14,6.27-.73,2.13-.62,4.48-3.74,7.07-3.52,2.95.25,9.88,5.07,12.25,7.21ZM789.32,261.04c11.57-14.08,8.89-37.52-12.38-36.4-1.46,5.48-12.5,17-13.21,21.34-.77,4.69,3.66,9.26,5.98,12.94l-2.98.48c-1.37,1.93,5.98,18.01,6.91,21.58,2.27,8.78,3.56,19.12,5.03,27.97.57,3.44.09,7.81,1.06,11.44l2.94-9.55c1.48-15.75,2.19-32.2,8.06-46.93-2.39.29-3.44,3.16-5.95,4.04-.95.33-5.1,1.47-5.04-.54,3.22-1.95,7.19-3.47,9.58-6.38Z"/>
    <path d="M505.56,223.63c2.9,1.65,2.6,15.73,2.24,19.31-2.55,25.47-14.28,63-25.32,86.67-1.69,3.63-3.17,9.15-7.7,7.79-1.43-4.99-.15-9.09-.02-13.52.64-20.43,4.42-40,3.05-61.03-.83-12.72-5.45-25.63-3.08-38.77,4.23-4.46,6.67-.85,10.5-.65,6.74.36,13.59-.54,20.31.19ZM477.77,226.41v16.5c0,6.52,6.29,14.71,10.98,19-2.87,3.28-6.18-3.44-7.97-4.49-1.08,12.19,1.4,26.62.02,38.52-.28,2.45-1.84,4.23-1.98,6.02-.77,10.1-1.02,20.36-1.56,30.44,6.86-13.89,12.49-28.98,17.2-43.83,1.71-5.38,7.12-21.74,7.27-26.66.06-1.73-2.05-3.16-1.75-4.8,1.51-8.11,5.98-16.38,4.72-25.14-.28-1.95-1.61-3.59-2.05-5.49-8.45,2.2-16.45,0-24.89-.07Z"/>
    <path d="M596.62,223.55c2.73,12.69-1.92,25.16-2.85,37.37-1.64,21.61,2.31,41.97,2.99,62.97.14,4.22,1.56,8.05-.01,12.85-3.97,3.05-5.95-3.46-7.37-6.46-12.07-25.46-22.67-58.56-25.56-86.42-.36-3.46-1.01-19.47,2.66-20.45,6.26-.15,12.56.2,18.83.05,3.85-.09,7.4-2.32,11.32.1ZM593.76,226.41c-8.5.26-16.33,1.95-24.87.12-2.09,3.95-2.59,7.96-2.18,12.43.48,5.2,4.27,13.35,4.62,17.96.11,1.49-1.59,3.27-1.51,5.01.26,5.43,5.42,20.94,7.24,26.63,4.66,14.58,10.48,30.19,17.2,43.83-.54-10.08-.79-20.34-1.56-30.44-.14-1.8-1.69-3.58-1.98-6.02-1.38-11.9,1.1-26.33.02-38.52-2.06,1.31-3.45,6.02-7,4.48-.02-2.47,2.96-2.73,4.03-4.24,1.99-2.81,5.98-11.56,5.98-14.75v-16.5Z"/>
    <path d="M440.49,223.68c.35.43,3.08,9.24,3.22,10.28,2.62,19-6.25,26.29-9.89,42.99-1.05,4.8-1.24,11.82-2.3,16.69-1.78,8.14-7.91,25.67-12.89,32.11-5.76,7.46-5.17-9.02-4.9-11.9,2.24-23.72,3.76-35.91-4.84-58.28-3.13-8.14-4.8-18.43-2.69-27.23,2.71-11.27,27.63-12.9,34.28-4.66ZM435.37,224.85c-8.38-5.34-24.52-3.34-26.33,8.33-1.97,12.65,2.51,20.57,8.69,30.78l-2.97-.04c4.97,13.78,5.22,28.39,3.91,42.88-.44,4.86-3.19,10.07-1.88,15.6l5.7-10.78c5.86-11.64,6.09-24.34,8.33-36.66.33-1.84,3.09-4.01,1.46-5.54-1.76,2.41-4.55,4.12-7.5,2.5,1.09-1.54,3.18-1.39,4.5-2.5,4.54-3.82,10.79-16.83,11.47-22.6.19-1.6-1.76-15.25-2.2-17.73-.24-1.36-2.1-3.55-3.18-4.24Z"/>
    <path d="M662.41,223.75c4.34,4.12,4.02,17.33,3.34,23.16s-5.39,10.41-6.71,16.29c-4.26,18.89-3.16,30.06-1.37,48.78.79,8.3.94,24.17-7.27,9.27-9.43-17.13-9.68-31.13-13.94-49.05-3.54-14.88-10.57-18.23-8.72-36.3.21-2.02,2.07-9.52,2.96-11.04,5.08-8.64,24.95-7.54,31.71-1.12ZM661.5,227.66c-.67-1.18-8.33-5.03-10.2-5.29-5.37-.75-15.96-.07-18.08,6.01-.82,2.37-2.44,12.96-2.49,15.59-.13,7.02,5.65,20.61,10.97,25.02,1.24,1.03,2.43,1.54,4.06,1.44.4,4.49-5.37,1.08-6.5-1.01-1.63,1.53,1.13,3.7,1.46,5.54,1.37,7.5,1.51,16.2,3.33,23.66,1.9,7.78,7.53,15.99,9.72,23.78,1.75-.56,1.18-6.13.99-7.5-2.32-17.35-3.84-28.2.06-45.91.36-1.63,1.62-2.69,1.95-4.06.77-3.22-4.54,1.05-3.01-2,.45-.9,2.14-1.83,2.84-3.16,1.73-3.25,5.08-9.9,5.71-13.29.68-3.64.82-15.92-.82-18.81Z"/>
    <path d="M242.25,229.99c.25.35,1.36.35,1.53,1.13.41,1.88.28,7.68.06,9.84-1.2,12.15-6.5,23.65-8.95,35.04-2.23,10.34-3.02,21.61-5.15,31.85-.95,4.57-2.71,9.68-3.46,14.53l-2.95,1c-2.98-2.62-2.09-6.83-2.76-10.24-4.59-23.44-6.31-46.38-11.86-70.13-.49-2.1-3.89-10.71-3.7-11.91.32-1.92,4.57-5.94,6.54-6.44,1.56-.4,9.95-1.11,11.78-1.08,2.84.06,5.04,2.3,7.2,2.62,5.02.73,7.2-2.6,11.72,3.79ZM226.8,264.42c4.69-1.27,10.69-7.17,11.73-11.78.9-3.99-.13-8.56.32-12.67.3-2.69,4.02-7.25-1.06-10.04s-10.38,1.59-13.49,1.6c-3.3,0-9.84-5.27-14.56-1.53.14,7.83,3.02,15.48,4.96,23.02,2.38,9.26,2.15,14.69,3.33,24.67.76,6.46,2.95,14.86,3.69,21.3.67,5.81.76,12.52,1.08,18.42,3.3,3.77,3.84-14.2,4.06-15.43,1.92-10.91,4.29-24.03,6.97-34.86.16-.63,3.36-1.36,1.96-4.7l-6.67,3.85-2.32-1.84Z"/>
    <path d="M849.71,323.4l-3.38-.1c-1.41-.49-4.07-11.98-4.56-14.45-.92-4.69-1.18-11.17-2.12-15.87-3.04-15.06-7.46-29.94-10-44.99-1.44-8.54-6.17-20.76,6.83-22.32,6.89-.83,13.8-1.81,20.75-1.25,2.12.17,5.58,1.42,6.94,3.04,3.87,4.58-2.94,21.47-4.23,27.69-3.92,18.97-5.53,38.87-8.99,58-.6,3.31-.68,6.91-1.25,10.26ZM861.61,229.53c-4.65-3.15-11.28,2.07-14.29,1.91-3.34-.18-9.56-4.69-14.07-1.01s-.9,6.93-.6,10.57c.61,7.44-1.43,11.51,4.03,17.96,1.97,2.33,5.06,4.61,8.04,5.47-1.63,4.19-9.77-5.08-9.01-.5.51,3.08,3.21,7.96,3.91,11.1,2.69,12.1,4.07,25.49,6.1,37.89.27,1.64-.42,3.29,1.52,4.48,2.51.46,1.32-1.96,1.45-3.51,1.52-18.16,4.91-34.97,5.01-52.9,0-.62,2.06-.48,2.6-2.46,1.54-5.68,2.37-12.68,3.53-18.51.62-3.13,3.36-6.24,1.78-10.48Z"/>
    <path d="M1058.69,291.4c-1.05.12-2.06.08-3.01-.47-4.76-2.74-1.87-22.53-8.48-26.52-4.43,8.99-8.55,18.74-7.5,28.99-1.61.14-2.3.24-3.49-1-1.47-1.54-5.46-15.69-6.21-18.78-1.78-7.3-4.62-19.52-5.3-26.7s-1.33-15.74,6.99-18.1c1.67-.47,17.61-.6,19.31-.2,1.96.45,3.16,2.37,5.24,2.76,4.74.87,10.42-2.21,12.2,4.79s-2.35,11.82-3.67,17.83c-2.12,9.65-2.86,19.79-4.8,29.2-.56,2.71-.25,5.57-1.29,8.22ZM1063.49,234.63c-2.99-.78-6.22.26-9.23-.28-2.3-.41-4.37-2.97-6.92-2.7s-3.88,3.54-6.17,3.79c-3.14.34-4.82-2.88-7.03-3.07-1.46-.12-5.33,1.98-5.92,3.04-1.59,2.85.96,10.05,1.34,13.63.34,3.24-.01,8.02.41,10.64,1.4,8.67,5.15,16.89,5.75,25.71l8.69-22.03c11.62-3.93,9.29,12.21,11.27,18.57.44,1.42-.6,1.77,2.02,1.47.39-9.8,2.56-18.89,4.02-28.49l-4.01,1.99c3.23-3.74,4.41-8.4,6.08-12.72.36-.94,1.87-.54,2.02-2.25.25-2.91-.8-4.99-2.32-7.31Z"/>
    <path d="M44.4,231.87c.8.7,1.59,1.54,2.38,2.27.44,12.93-2.13,26.89-5.25,39.48-.8,3.21-4.44,16.25-5.82,18.17-1.24,1.72-1.72,1.89-3.88,1.61,1.21-10.33-3.31-19.69-7.02-28.99-6.49,3.57-4.05,10.16-5.04,15.45-.24,1.3-2.18,8.95-2.45,9.54-.78,1.66-2.72,2.28-4.48,2-3.02-9.52-2.52-19.53-4.24-29.27-1.05-5.95-4.94-13.89-5.71-19.28-.35-2.48-.31-4.98.49-7.39,2.07-6.22,7.28-3.25,11.9-4.09,2.2-.4,3.44-2.47,6.09-2.91,4.44-.74,8.73.42,12.95.75,4.79.37,4.75-1.96,10.07,2.66ZM35.82,285.4c.66-8.86,4.36-17,5.73-25.76.42-2.66.1-7.36.43-10.59.37-3.59,2.93-10.77,1.34-13.63-.59-1.06-4.45-3.16-5.92-3.04-2.4.19-4.82,3.97-6.64,3.61-1.97-.39-4.1-4.06-6.57-4.34s-4.62,2.29-6.92,2.7c-3.01.54-6.24-.5-9.23.28-1.59,2.44-2.91,5.05-2.19,8.07.16.68,1.55.62,1.88,1.48,1.68,4.32,2.85,8.98,6.08,12.72l-3.02-2.51-1.95,1.49c4.2,9.63,4.31,20.86,4.99,31.5l2.74-7.75c-.91-5.73,2.28-21.35,10.55-16.29l8.69,22.04Z"/>
    <path d="M175.13,112.16c.11.25,1.45.19,1.65.97.76,2.98.32,6.34,2.03,9.29-3.76-2.43-6.37-4.27-10.99-2.99l10.08,5.41c1.16,1.08,3.61,5.63,3.87,7.15.55,3.2-4.72,18.79-7.15,20.2-4.95,2.87-12.27-4.82-16.21-4.77-5.09.06-4.95,8.52-11.83,6.78-4.82-1.22-11.74-12.03-12.59-16.58-.09-.47,2.04-8.27,2.38-9.16,2.79-7.34,11.77-6.81,17.44-10.55-2.11-2.61-14.48,3.08-14.99,2.5-1.68-3.68,1.9-5.35,1.98-5.68,1.11-5.01,2.63-12.66,3.01-17.82,1.39-18.92-1.02-39.39.02-58.48l4.05,26.43c1.93,4.15,5.45,24.54,11.42,24.62,5.62.08,6.26-13.06,8.46-16.63l6.05-39.43c2.1,21.4-3.2,45.51-1.04,66.54.15,1.44,2.12,11.61,2.37,12.18Z" style="fill: #fff;"/>
    <path d="M159.81,85.42c-2.32.61-2.94-3.18-3.67-4.82-4.56-10.32-3.63-18.24-2.32-29.17,2.08.93.64,5.31,1.04,7.45.97,5.2,2.15,10.47,3.03,15.96.47,2.93,3.38,6.31,1.91,10.58Z" style="fill: #fff;"/>
    <path d="M914.35,88.01c4.37-2.65,4.86-11.04,7.1-15.35l6.25-34.23c.95,18.82-1.25,38.79.02,57.48.38,5.57,1.82,13.47,3.01,18.82.07.33,3.65,2,1.98,5.68-1.7.5-2.68-1.29-3.87-1.48-1.27-.21-2.49.64-3.45.51-.4-.06-3.4-5.3-6.67-.03,4.01-1.51,4.78,1.57,5.75,1.94,2.85,1.1,4.35-.06,7.73,3.09,2.01,1.87,5.44,10.06,5.45,12.48.02,4.71-8.32,16.78-13.52,17.52-6.01.85-6.12-6.94-11-7-7.94-.1-13.73,14.24-20.63-3.29-.61-1.56-2.45-6.87-2.72-8.26-1.74-8.93,6.71-13.2,13.93-15.95-3.85-1.55-7.9.31-10.98,2.5l6.02-21.47-1.02-67.52,1.22,8.26c2.69,3.61,1.22,7.46,1.78,11.22,1.03,6.97,4.69,32.43,9.46,35.61,2.07,1.38,2.43.54,4.17-.52Z" style="fill: #fff;"/>
    <path d="M915.31,82.05l-3.59,3.38c-1.45-4.27,1.41-7.6,1.91-10.58.93-5.54,1.93-10.67,3.03-15.96.39-1.86-.99-5.94,1.04-6.45,1.47,10.18,2.04,20.05-2.4,29.61Z" style="fill: #fff;"/>
    <path d="M104.82,121.43c-.31,3.01,3.74,3.36,5.07,5.43.2.32,2.96,5.66,3,6,.26,2.02.29,9.03-.12,10.84-.33,1.48-6.41,6.62-7.04,8.63l-11.41-5.82c-3.4-.12-6.5,6.9-11.85,6.61-10.1-.55-18.54-23.41-6.67-28.72l-.71-1.99-2.26-.47c.83-3.69,3.19-8.71,3.9-12.1,3.58-17.14.81-34.99,1.1-52.4l2.74,7.75c.39,5.82,4.71,27.95,9.23,30.76,4.93,3.07,7.8-3.47,8.91-7.13,1.74-5.74,4.14-18.18,5.06-23.93.24-1.49.66-15.46,1.54-15.46.83,14.12.59,28.38.54,42.55-.01,2.89-1.14,5.65-1.11,8.97.06,6.28,2.32,14.3,5.05,19.99l-4.97.5ZM83.82,121.43h14c.43-2.74-.46-1.74-2.2-2.23-3.18-.89-6.44-.94-9.64-.06-1.78.49-2.58-.31-2.16,2.29Z" style="fill: #fff;"/>
    <path d="M93.81,93.43c-6.56-1.1-4.69-9.47-3.93-14.44.23-1.52,1.6-2.59,1.9-4.1.54-2.72-1.31-7.07,2.03-8.46.8,9.31,4.34,17.72,0,27Z" style="fill: #fff;"/>
    <path d="M992.72,53.44l.99,3.48c.24,21.97-3.52,44.15,4.96,65.07l-1.92,1.87c1.64,2.12,4.45,6.64,4.9,9.1,1.16,6.27-1.77,11.32-5.92,15.97-1.84,2.07-4.11,3.79-6.53,5.12l-12-7.55-10.86,5.81c-1.28-.22-7.57-8.19-7.71-9.35-1.08-9.01.99-15.42,8.06-21.05h-5c2.3-6.4,5.07-14.17,5.1-21,.01-2.86-1.12-5.32-1.13-7.95-.04-14.51.11-29.03.05-43.53l1.87,8.61c1.2,9.15,2.63,22.79,5.42,31.58,1.21,3.83,4.78,9.79,9.21,5.81,6.19-5.56,9.44-33.17,10.5-41.99Z" style="fill: #fff;"/>
    <path d="M977.72,93.43c-4.34-9.28-.8-17.68,0-27,1.92.4,1.77,1.99,2.01,3.48.81,5.23,2.99,13.32,2.85,18.06-.07,2.2-2.32,5.7-4.86,5.45Z" style="fill: #fff;"/>
    <path d="M490.09,60.16c.63,2.31,1.89,6.42,2.78,9.67,3.89,14.2,7.32,28.4,12.88,42.12l-6.56-2.45-1.42,1.92c9.72,1.77,16.08,17.85,16.92,26.6.53,5.54.93,24.87-.35,29.5-.83,3.01-6.45,4.46-9.18,4.79-6.9.85-25.95,1.05-31.57-2.2-.69-.4-4.56-4.03-4.78-4.48-.57-1.17-2.72-13.62-2.93-15.81-.97-10.26,1.59-25.66,7.59-34.13.83-1.17,2.72-3.11,4.28-3.28l-.49-1.99-2.99,2c-.55-4.25,2.44-10.35,3.26-14.73,3.54-18.82,2.44-27.42,1.23-45.75-.8-12.11-.31-24.45-1.98-36.5l4.89,11.6c3.36,10.88,5.44,22.27,8.42,33.12Z" style="fill: #fff;"/>
    <path d="M597.75,112.43l-4.99-1.5c11.12,7.54,13.78,25.39,12.98,37.99-.57,9.05-2.01,21.39-12.72,23.28-5.8,1.02-25.26.82-30.7-.84-3.86-1.17-5.13-2.37-5.56-6.41-.87-8.22-.63-26.28,1.56-34.01,2.03-7.14,7.43-18.34,15.44-19.51l-1.42-1.92-6.56,2.45,27.99-96.5c1.88-.2.81,2.1.7,3.2-.66,7.1-1.18,14.25-1.7,21.3-1.54,20.78-2.9,36.03,1.08,56.9.45,2.35,4.47,14.74,3.9,15.59Z" style="fill: #fff;"/>
    <path d="M372.78,124.42c-3.58-2.26-6.16-7.06-10.98-6.99l11.84,14.65c7.15,13.92,2.34,29.75-9.82,38.79-1.95.49-6.75-3.2-8.5-4.47-2.63-1.91-12.97-11.82-14.18-14.3-3.41-6.97-2.91-20.66-.08-27.92.69-1.78,3.59-6.74,5.74-6.77l-1.99-1.51-1.99,1.53c-.95-3.05,1.29-5.43,1.72-7.76,5.54-29.9,6.49-61.52,10.19-91.8.53-4.37-.4-8.97,1.09-13.41,1.74-.24.94,2.27.99,3.48.73,19.75,1.6,42.97,5.04,61.96,1.68,9.3,5.17,18.95,6.9,28.1,1.58,8.41,1.91,17.97,4.05,26.44Z" style="fill: #fff;"/>
    <path d="M728.73,117.43l-2.99-.5c1.69,2.16,4.17,5.44,5.05,7.95,4.02,11.39,2.79,24.59-5.53,33.61-2.05,2.22-15.04,13.02-16.84,12.76-15.86-11.05-18.39-30.76-6.2-45.83.4-.5,10.43-10.08,5.03-7.98-2.7,1.05-5.56,5.74-8.53,6.48l4.25-26.74c3.41-11.07,5.05-22.59,6.98-34.02,2.52-14.88,3.28-30.08,4.77-45.23.42-4.33-.29-9.1.02-13.48,1.47-.09,1.76,3.58,1.87,4.61.59,5.49,1.46,10.52,2.13,15.87,3.49,28.04,2.48,56.84,8.3,84.69.44,2.12,2.89,4.52,1.68,7.81Z" style="fill: #fff;"/>
    <path d="M41.58,122.23l-1.64.27-.1,1.9c7.77,4.08,8.57,21.42.31,25.91-4.28,2.33-8.22-1.87-11.84-1.8-5.9.13-8.53,8.17-15.98,2.89-7.58-5.37-10.45-15.03-6.81-23.76.52-1.24,2.68-1.59,3.28-3.75.88-3.17-4.27,1.29-2.97-1.96,1.77-4.42,4.34-5.88,4.97-12.03,1.24-12.14-.89-26.13.02-38.48,2.64-.45,1.76.43,2.28,2.16,1.5,5.04,5.06,32.34,13.8,30.39,3.21-1.2,3.89-4.83,5.44-7.53l6.46-31.02c2.09,14.96-1.65,31.41,0,46.49.43,3.96,2.91,6.55,2.75,10.3ZM29.83,119.43c-4.78-.6-9.3-.94-14,.49,2.64,2.21,9.2,1.93,12.51,1.51,1.38-.17,3.14-.76,1.49-2Z" style="fill: #fff;"/>
    <path d="M24.82,99.43c-8.16-7.48-3.92-18.23-3.98-27.99l2.91,10.57,1.07,17.42Z" style="fill: #fff;"/>
    <path d="M1060.7,111.93c.49,2.93,3.93,7.45,4.99,10.02,1.26,3.08-4.46-1-2.98,1.97.64,1.29,2.77,2.24,3.54,4.47,3.07,8.9.42,18.32-7.6,23.49-6.43,4.15-10.41-2.91-15.6-3.16-5.75-.27-9.23,6.91-15.18-1.95-4.38-6.53-3.3-18.74,3.82-22.35l-.1-1.89-1.96-.66c6.92-17.76.63-37.99,3.09-56.41l4.3,23.18c2.05,8.27,7.45,24.24,14.91,9.52,4.12-8.14,4.06-16.75,6.28-24.75.5-1.79.28-2.31,2.5-1.95,1.45,12.19-1.94,28.88,0,40.49ZM1054.69,119.43c-3.67.32-7.94-.46-11.51,0-1.46.19-3.1.76-1.48,2,3.67-.32,7.94.46,11.51,0,1.46-.19,3.1-.76,1.48-2Z" style="fill: #fff;"/>
    <path d="M1050.32,95.08l-4.62,5.34c2.51-9.57,1.67-19.47,4.5-29,1.18,7.73,2.83,15.96.12,23.66Z" style="fill: #fff;"/>
    <path d="M416.78,28.44l5.66,14.84c5.64,19.89,7.14,40.68,10.1,60.9.28,1.92,1.71,11.59,1.23,12.26l-4.5-2.99c-3.17-1,4.72,6.62,4.97,7.02,4.16,6.81,7.62,22.23,7.62,30.47,0,5.82-.76,11.98-5.6,15.48-6.7,4.84-15.1,3.6-22.17.19-6.69-3.23-11.91-11.34-11.89-18.68s4.14-20.57,7.74-26.82c1.12-1.94,4.84-4.89,4.84-5.25-.12-6.65,1.99-12.34,1.99-15.92V28.44Z" style="fill: #fff;"/>
    <path d="M930.71,260.4c-.35,5.31-2.23,10.24-2.98,15.52-.62,4.36-1.52,10.84-1.93,15.07-.73,7.35.1,15.05-1.09,22.41-1.53-.34-2.75-4.31-2.93-5.55-.99-6.62-1.11-29.51-5.35-33.13-3.83-3.28-6.94.75-8.74,4.16-4.6,8.69-4.53,19.33-4.96,29.04-.05,1.22.75,3.71-.99,3.48-.8-9.46-3.59-19.03-4.91-28.6-.4-2.92.19-5.9-.18-8.82-.58-4.52-3.26-9.22-1.91-14.58l2.49,1.99c1.24-1.75-1.65-4.32-2.53-6.49-2.06-5.14-6.14-18.57-.92-21.94,7.91-5.11,16.88,2.14,23.45,1.53,3.24-.3,10.33-5.34,12.43-4.63,9.58,3.23,6.11,17.11,3.28,24.26-1.64,4.14-6.14,5.16-6.2,5.78-.14,1.47,3.08,1.46,3.97.49ZM919.71,259.42c-3.93-1.02-9.79-2.81-12,1.98,3.62-.61,9.79,1.77,12-1.98Z" style="fill: #fff;"/>
    <path d="M654.75,99.93c.76,6.35,2.14,8.09,1.99,15.92,0,.36,3.72,3.31,4.84,5.25,8.16,14.21,13.14,37.56-4.97,45.69-7.33,3.29-21.95,4.59-25.3-4.41-.41-1.11-2.47-9.56-2.52-10.53-.12-2.46,1.54-4.58,1.88-6.99,1.19-8.57,2.04-16.92,6.61-24.39,1.17-1.91,4.03-3.64,5.46-5.54l-5.99,1.49c4.48-17.82,6.31-35.93,7.05-54.43l10.95-33.55v71.49Z" style="fill: #fff;"/>
    <path d="M173.82,261.41l2.98-2c0,11.13-3.18,22-3.25,33.23l-3.75,18.75c-1.75.23-.94-2.26-.99-3.48-.51-11.47,0-27.48-10.5-34.55l-5.42,4.81c-.52,7.65-1.98,15.17-3.06,22.74-.56,3.92,1.11,9.52-3,12.48-1.41-7.37-.37-15.04-1.09-22.41-.6-6.2-1.84-15.77-3.02-21.98-.5-2.61-3.06-5.05-1.91-8.61l4-.98c-4.07-.93-5-2.52-6.47-6.01-2.56-6.09-6-22.33,4.03-22.98,4.06-.26,8.47,3.74,11.93,4.06,6.16.56,17.35-6.99,24.05-1.14,5.4,4.72-1.75,22.31-4.54,28.05ZM162.81,261.4c-.31-5.05-6.9-2.73-9.99-1.98,1.72,3.49,6.9,1.55,9.99,1.98Z" style="fill: #fff;"/>
    <path d="M306.78,123.42c-3.64-2.79-7.05-6.58-11.99-6.99,5.42,5.03,15.46,13.53,15.93,21.55.49,8.53-15.93,21.53-23.87,18.87-8.94-2.98-17.31-15.33-15.03-24.75.18-.74,1.72-.55,1.95-1.41.89-3.36,1.98-8.46,5.41-10.92.46-.33,5.47-.87,1.87-2.34l-2.17-.07c-1.14-3.05,1.32-5.13,1.81-7.55,4.71-23.09,5.08-46.55,8.16-69.83.35-2.62,2.91-5.23,1.95-8.55,1.34.53,1.71,5.21,1.87,6.62,2.85,26,6.3,47.45,12.04,72.95.84,3.72.9,8.52,2.07,12.42Z" style="fill: #fff;"/>
    <path d="M238.79,124.42c-.34-.44-10.46-9.17-9.97-4.5.06.6,7.29,5.86,8.99,8.03,3.05,3.88,4.9,8.72,3.78,13.76s-12.35,13.28-17.4,13.67c-6.97.55-16.31-9.42-17.2-15.73-1.11-7.83,3.77-17.33,10.81-20.75.08-4.2-5.62,1.99-5.98,1.51-.01-.49-.07-.99,0-1.49.59-5.02,4.15-12.74,4.95-18.06,2.08-13.83,3.47-30.99,4.97-45.02.69-6.49.75-13.85,1.09-20.42,1.55.5,2.67,1.93,2.97,3.52,1.02,5.39.63,13.6,1.44,19.53,2.11,15.32,3.98,31.52,8.49,46.53l3.07,19.41Z" style="fill: #fff;"/>
    <path d="M794.55,119.28l-1.71.21-.09,1.91c.73-.05,1.56.06,1.98.72,6.26,9.73,7.37,18.17-.06,27.51-2.88,3.62-10.5,8.6-15.16,7.53-6.28-1.44-19.6-12.45-19.37-19.22.13-3.84,9.36-18.58,14.59-18.53-.03-5.57-8.07,2.41-9.5,4-.31-8.37,3.51-17.38,5.21-25.78,3.43-16.93,5.89-34.63,8.24-51.75.61-4.48.06-9.81,1.06-14.44l2.76,8.73c3.51,22.61,2.67,48.52,8.55,70.44.44,1.66,4.07,7.97,3.5,8.68Z" style="fill: #fff;"/>
    <path d="M1001.57,232.55c.44.71.32,7.84.09,9.31s-1.52,2.53-1.88,4.12c-1.25,5.56-.74,11.89-8.06,13.44.6,2.91,5.4-2.26,5.03,1.51-.33,3.37-3.48,9.09-3.96,13.05-1.1,9.18-.66,20.08-1.09,29.42-1.87-.59-2.65-2.83-2.93-4.56-1.57-9.97,2.25-24.44-8.61-30.49-5.88-.54-6.45,10.99-8.82,15l-2.62,20.05-4.96-21.54-2.06-23.93,5.5,1.49.5-1.99c-5.87-.86-11.44-18.36-9.01-22.28,5.84-6.01,12,.07,16.47-.71,2.32-.41,6.16-4.74,9.12-5.02,2.27-.21,3.86,1.7,5.97,1.95,3.75.45,7.78-.72,11.31,1.19Z" style="fill: #fff;"/>
    <path d="M112.54,234.68c3.41,3.67-2.81,17.75-5.71,21.28-1.18,1.44-4.61,1.28-2.5,3.46l4.01-2c1.76-.23,1.54-.05,1.5,1.52-.17,7.88-2.3,15.03-2.07,22.91l-4.96,21.54-2.71-18.79c-1.56-4.27-2.93-16.79-8.73-16.26-10.86,6.05-7.04,20.53-8.61,30.49-.27,1.73-1.06,3.97-2.93,4.56-.43-9.33.01-20.23-1.09-29.42-.47-3.96-3.62-9.69-3.96-13.05-.37-3.78,4.43,1.4,5.03-1.51-7.32-1.55-6.81-7.88-8.06-13.44-.36-1.59-1.66-2.71-1.88-4.12s-.35-8.6.09-9.31c3.53-1.91,7.56-.74,11.31-1.19,2.11-.26,3.7-2.17,5.97-1.95,2.96.28,6.8,4.61,9.12,5.02,4.44.78,10.13-5.02,16.17.25Z" style="fill: #fff;"/>
    <path d="M356.43,222.79c1.16.65,10.28,9.1,11.03,10.43,1.44,2.56,4.31,11.97,4.34,14.68.04,3.1-1.88,6.99-3.3,9.73-.35.68-7.59,9.67-3.23,7.78,1.99-.87,2.89-6.16,5.5-4.51l-10.88,40.12c-1.28,13.53-1.78,26.95-3.61,40.4-.73.02-1.3-2.81-1.41-3.59-2.24-15.31-4.94-30.1-5.14-45.96-.08-6.51,2.24-13.56-.95-20.44l3.47,1.6,2.53-1.6c-3.85.41-5.64-5.44-6.71-8.8-2.77-8.7-4.72-22.62-1.96-31.38.36-1.14,3.67-8.15,4.2-8.81,1.44-1.79,4.38-.6,6.11.36Z" style="fill: #fff;"/>
    <path d="M859.71,120.42l-3.99-.5c8.44,5.85,11.96,18.26,5.6,27.04-2.6,3.59-9.42,8.81-13.99,8.42-5.47-.47-16.66-8.84-17.56-14.52-1.38-8.67,5.71-16.02,11.95-20.94-3.8-1.69-6.22,2.96-8.98,4.5.07-1.48-.22-3.05-.04-4.53,1.05-8.55,5.52-19.43,6.96-28.03,2.83-16.87,3.45-34.99,6.12-51.87.29-1.81,1.04-3.36,2.45-4.55,1.22,6.64.86,13.75,1.57,20.41,1.96,18.36,4.23,40.69,8.81,58.18.29,1.12,1.38,6.02,1.1,6.39Z" style="fill: #fff;"/>
    <path d="M720.48,270.13c-1.11,1.22-3.8.45-3.73,2.27l3.81.81,2.18-1.79c-.75,3.3-2.08,8.23-2.08,11.49,0,20.66-.42,28.85-3.86,49.05-.46,2.7,1.01,7.88-2.04,9.44,1.36-6.53-1.51-12.64-2-18.5-.38-4.59.39-9.46.03-14.03-1.23-15.74-9.85-32.54-12.04-47.96-.09-.6-.28-1.64.5-1.49,1.65,1.48,2.96,3.89,4.53,5.34,1.04.97,1.96-.68,1.96-.84,0-.5-4.95-6.07-5.87-8.11-3.63-8.05-1.31-18.89,4.38-25.4,2.1-2.4,10.13-9.05,13.09-8.94,5.64.2,7.61,18.95,7.45,23.5-.15,4.19-3.74,22.37-6.3,25.17Z" style="fill: #fff;"/>
    <path d="M294.64,224.58c.6.37,5.55,10.88,6.55,12.48.59.93,2.78,2.01,3.55,3.14,6.53,9.59.47,12.15-3.93,20.72l3.98-1.51c1.07,1.55-6.08,18.35-6.9,21.58-2.63,10.39-3.65,23.19-5.21,33.79-.19,1.28-.41,5.43-1.87,5.62,1.11-3.74-1.48-6.58-1.96-9.55-2.09-13.15-1.74-27.76-5.33-40.67-.56-2-2.75-3.92-2.74-6.26l8.89,5.11,2.11-1.11c-11.86-6.05-20.12-20.42-14.74-33.76,1.9-4.71,12.87-12.53,17.59-9.58Z" style="fill: #fff;"/>
    <path d="M789.32,261.04c-2.39,2.91-6.37,4.42-9.58,6.38-.06,2,4.09.87,5.04.54,2.52-.89,3.57-3.76,5.95-4.04-5.87,14.73-6.58,31.18-8.06,46.93l-2.94,9.55c-.97-3.63-.49-8-1.06-11.44-1.47-8.85-2.76-19.18-5.03-27.97-.92-3.57-8.28-19.65-6.91-21.58l2.98-.48c-2.32-3.68-6.76-8.26-5.98-12.94.72-4.35,11.75-15.86,13.21-21.34,21.27-1.12,23.95,22.32,12.38,36.4Z" style="fill: #fff;"/>
    <path d="M477.77,226.41c8.44.07,16.45,2.27,24.89.07.43,1.89,1.76,3.54,2.05,5.49,1.26,8.76-3.2,17.03-4.72,25.14-.31,1.64,1.8,3.06,1.75,4.8-.16,4.92-5.57,21.28-7.27,26.66-4.71,14.84-10.34,29.93-17.2,43.83.54-10.08.79-20.34,1.56-30.44.14-1.8,1.69-3.58,1.98-6.02,1.38-11.9-1.1-26.33-.02-38.52,1.79,1.05,5.1,7.77,7.97,4.49-4.69-4.29-10.98-12.48-10.98-19v-16.5Z" style="fill: #fff;"/>
    <path d="M593.76,226.41v16.5c0,3.19-3.99,11.94-5.98,14.75-1.07,1.51-4.05,1.77-4.03,4.24,3.54,1.54,4.94-3.17,7-4.48,1.08,12.19-1.4,26.62-.02,38.52.28,2.45,1.84,4.23,1.98,6.02.77,10.1,1.02,20.36,1.56,30.44-6.72-13.64-12.54-29.25-17.2-43.83-1.82-5.69-6.97-21.2-7.24-26.63-.08-1.73,1.62-3.52,1.51-5.01-.35-4.61-4.15-12.76-4.62-17.96-.41-4.48.09-8.48,2.18-12.43,8.54,1.83,16.36.14,24.87-.12Z" style="fill: #fff;"/>
    <path d="M435.37,224.85c1.08.69,2.94,2.87,3.18,4.24.44,2.48,2.39,16.13,2.2,17.73-.68,5.77-6.93,18.78-11.47,22.6-1.32,1.11-3.41.96-4.5,2.5,2.95,1.62,5.74-.09,7.5-2.5,1.63,1.53-1.13,3.7-1.46,5.54-2.24,12.32-2.47,25.02-8.33,36.66l-5.7,10.78c-1.3-5.53,1.44-10.74,1.88-15.6,1.32-14.49,1.07-29.09-3.91-42.88l2.97.04c-6.18-10.21-10.66-18.13-8.69-30.78,1.81-11.66,17.94-13.67,26.33-8.33Z" style="fill: #fff;"/>
    <path d="M661.5,227.66c1.64,2.89,1.49,15.17.82,18.81-.63,3.38-3.99,10.04-5.71,13.29-.71,1.33-2.39,2.26-2.84,3.16-1.53,3.05,3.78-1.22,3.01,2-.33,1.37-1.59,2.42-1.95,4.06-3.9,17.72-2.38,28.57-.06,45.91.18,1.37.76,6.94-.99,7.5-2.19-7.79-7.82-16-9.72-23.78-1.83-7.46-1.97-16.17-3.33-23.66-.33-1.84-3.09-4.01-1.46-5.54,1.13,2.08,6.9,5.49,6.5,1.01-1.63.1-2.82-.41-4.06-1.44-5.32-4.42-11.1-18-10.97-25.02.05-2.63,1.67-13.22,2.49-15.59,2.12-6.08,12.71-6.75,18.08-6.01,1.88.26,9.54,4.11,10.2,5.29Z" style="fill: #fff;"/>
    <path d="M226.8,264.42l2.32,1.84,6.67-3.85c1.41,3.34-1.8,4.07-1.96,4.7-2.68,10.82-5.05,23.94-6.97,34.86-.22,1.23-.76,19.2-4.06,15.43-.33-5.9-.41-12.6-1.08-18.42-.75-6.44-2.93-14.84-3.69-21.3-1.18-9.98-.95-15.41-3.33-24.67-1.93-7.54-4.81-15.19-4.96-23.02,4.72-3.74,11.26,1.53,14.56,1.53,3.11,0,8.3-4.45,13.49-1.6s1.36,7.36,1.06,10.04c-.45,4.11.58,8.68-.32,12.67-1.04,4.61-7.03,10.51-11.73,11.78Z" style="fill: #fff;"/>
    <path d="M861.61,229.53c1.58,4.24-1.16,7.35-1.78,10.48-1.16,5.82-1.99,12.83-3.53,18.51-.54,1.98-2.59,1.84-2.6,2.46-.1,17.93-3.49,34.74-5.01,52.9-.13,1.55,1.06,3.97-1.45,3.51-1.94-1.19-1.25-2.84-1.52-4.48-2.03-12.4-3.41-25.79-6.1-37.89-.7-3.14-3.4-8.02-3.91-11.1-.76-4.57,7.38,4.7,9.01.5-2.98-.85-6.06-3.14-8.04-5.47-5.47-6.45-3.43-10.52-4.03-17.96-.3-3.64-3.97-6.84.6-10.57s10.73.83,14.07,1.01c3.01.16,9.64-5.06,14.29-1.91Z" style="fill: #fff;"/>
    <path d="M1063.49,234.63c1.52,2.33,2.57,4.4,2.32,7.31-.15,1.71-1.65,1.31-2.02,2.25-1.68,4.32-2.85,8.98-6.08,12.72l4.01-1.99c-1.46,9.59-3.63,18.68-4.02,28.49-2.62.3-1.58-.05-2.02-1.47-1.98-6.36.35-22.5-11.27-18.57l-8.69,22.03c-.6-8.82-4.35-17.04-5.75-25.71-.42-2.62-.07-7.4-.41-10.64-.38-3.58-2.93-10.78-1.34-13.63.59-1.06,4.46-3.16,5.92-3.04,2.21.18,3.89,3.4,7.03,3.07,2.29-.24,3.7-3.52,6.17-3.79s4.61,2.29,6.92,2.7c3.01.54,6.24-.5,9.23.28ZM1050.7,255.42c-5.37-1.29-9.38-5.02-12,1.98,1.63.26,2.94-1.07,4.51-1.06,2.45,0,8.24,3.01,7.48-.91Z" style="fill: #fff;"/>
    <path d="M35.82,285.4l-8.69-22.04c-8.27-5.06-11.46,10.56-10.55,16.29l-2.74,7.75c-.67-10.64-.78-21.87-4.99-31.5l1.95-1.49,3.02,2.51c-3.23-3.74-4.4-8.4-6.08-12.72-.33-.86-1.72-.8-1.88-1.48-.72-3.02.6-5.63,2.19-8.07,2.99-.78,6.22.26,9.23-.28,2.3-.41,4.37-2.98,6.92-2.7s4.6,3.94,6.57,4.34c1.82.36,4.24-3.42,6.64-3.61,1.46-.12,5.32,1.97,5.92,3.04,1.59,2.86-.97,10.04-1.34,13.63-.33,3.23,0,7.93-.43,10.59-1.37,8.76-5.08,16.9-5.73,25.76ZM31.82,257.41c-1.11-6.48-7.62-4.09-10.98-.49,3.73,1.15,7.43-2.05,10.98.49Z" style="fill: #fff;"/>
    <path d="M83.82,121.43c-.42-2.6.38-1.8,2.16-2.29,3.2-.88,6.46-.82,9.64.06,1.74.48,2.63-.52,2.2,2.23h-14Z"/>
    <path d="M29.83,119.43c1.66,1.24-.11,1.82-1.49,2-3.31.42-9.87.71-12.51-1.51,4.7-1.43,9.22-1.09,14-.49Z"/>
    <path d="M1054.69,119.43c1.62,1.23-.02,1.81-1.48,2-3.57.46-7.84-.33-11.51,0-1.62-1.23.02-1.81,1.48-2,3.57-.46,7.84.33,11.51,0Z"/>
    <path d="M919.71,259.42c-2.2,3.75-8.38,1.37-12,1.98,2.21-4.78,8.07-3,12-1.98Z"/>
    <path d="M162.81,261.4c-3.09-.43-8.27,1.51-9.99-1.98,3.09-.74,9.68-3.07,9.99,1.98Z"/>
    <path d="M1050.7,255.42c.76,3.92-5.03.92-7.48.91-1.57,0-2.88,1.32-4.51,1.06,2.62-7,6.63-3.27,12-1.98Z"/>
    <path d="M31.82,257.41c-3.55-2.54-7.26.65-10.98-.49,3.36-3.6,9.88-5.98,10.98.49Z"/>
  </g>
</svg>